<?xml version="1.0" standalone="no"?>
<!DOCTYPE svg PUBLIC "-//W3C//DTD SVG 20010904//EN"
 "http://www.w3.org/TR/2001/REC-SVG-20010904/DTD/svg10.dtd">
<svg version="1.0" xmlns="http://www.w3.org/2000/svg"
 width="1200.000000pt" height="800.000000pt" viewBox="0 0 1200.000000 800.000000"
 preserveAspectRatio="xMidYMid meet">

<g transform="translate(0.000000,800.000000) scale(0.100000,-0.100000)"
fill="#000000" stroke="none">
<path d="M4766 7990 c9 -13 10 -41 5 -85 -1 -5 -5 -4 -10 4 -5 8 -8 23 -6 33
2 10 0 16 -5 13 -5 -3 -6 -17 -4 -32 4 -21 2 -24 -9 -15 -10 9 -14 9 -14 -2 0
-8 11 -12 26 -11 27 2 64 -22 55 -36 -2 -4 4 -6 15 -4 18 3 28 -9 37 -47 1 -5
2 -9 3 -10 7 -9 7 -77 1 -73 -5 3 -11 1 -15 -5 -4 -6 -10 -8 -15 -5 -10 6 -6
-43 5 -53 4 -4 4 4 0 18 -6 19 -5 22 5 14 16 -15 9 -49 -10 -49 -10 0 -14 -9
-12 -25 5 -55 4 -72 -6 -82 -8 -8 -10 -1 -8 25 2 21 0 39 -4 42 -11 7 -7 29
10 51 11 15 11 17 0 7 -11 -10 -17 -10 -29 0 -12 10 -13 9 -6 -3 6 -8 10 -22
10 -30 0 -8 4 -21 8 -27 5 -8 3 -13 -5 -13 -10 0 -10 -2 0 -9 15 -9 15 -17 1
-44 -7 -12 -6 -17 3 -15 11 3 13 -9 9 -43 0 -5 -6 -7 -13 -3 -6 4 -8 3 -4 -4
3 -6 2 -13 -3 -16 -5 -4 -11 -1 -14 6 -2 7 -3 5 -2 -4 3 -20 -5 -23 -23 -8 -9
7 -9 7 -2 -2 6 -7 6 -18 0 -29 -7 -12 -6 -20 0 -24 7 -4 8 -11 1 -18 -9 -11
-11 -18 -11 -33 0 -4 -8 0 -17 7 -16 13 -17 12 -5 -3 8 -10 17 -16 20 -15 4 1
7 -2 7 -8 0 -5 -8 -11 -18 -12 -12 -2 -16 1 -11 9 4 7 3 10 -1 5 -18 -16 -23
-81 -7 -83 25 -3 27 -4 16 -12 -7 -4 -8 -15 -3 -27 7 -18 8 -18 9 5 2 14 2 29
1 33 -1 5 4 5 10 1 8 -5 9 -3 4 6 -6 9 -4 11 5 5 10 -6 11 -4 4 6 -13 21 -14
38 -2 46 6 3 8 1 4 -5 -3 -6 1 -9 11 -8 10 2 18 7 18 12 0 5 3 14 6 19 4 6 6
35 5 66 -1 49 1 56 16 54 10 -2 25 3 33 11 8 9 15 11 15 4 0 -6 -7 -13 -16
-17 -8 -3 -13 -12 -10 -19 3 -7 1 -16 -5 -19 -5 -4 -9 -3 -8 2 1 4 1 15 0 23
-1 12 -3 13 -10 1 -13 -21 -2 -50 17 -45 14 5 14 4 -1 -6 -9 -6 -15 -16 -11
-21 4 -7 10 -6 18 0 10 8 18 5 32 -12 19 -22 19 -22 -2 -4 -23 19 -36 14 -27
-11 4 -13 1 -12 -11 3 -15 20 -16 20 -12 -5 2 -14 8 -24 13 -23 5 1 10 -5 10
-12 0 -10 -4 -12 -12 -5 -17 14 -27 0 -12 -18 9 -13 9 -14 0 -8 -8 4 -13 2
-13 -6 0 -10 -2 -10 -9 1 -6 9 -11 10 -15 3 -4 -6 2 -16 13 -21 14 -8 21 -8
24 2 3 6 4 2 4 -10 -1 -15 -5 -19 -11 -13 -15 15 -30 12 -17 -3 8 -11 6 -18
-9 -32 -11 -10 -20 -15 -20 -10 0 4 -7 2 -15 -5 -8 -7 -15 -22 -14 -34 0 -21
0 -21 9 2 12 28 17 28 16 0 -1 -13 4 -23 11 -23 6 0 15 -4 20 -8 4 -5 2 -7 -6
-5 -7 2 -15 -2 -18 -9 -3 -8 3 -11 15 -8 14 2 19 -1 17 -13 -1 -9 2 -26 7 -37
8 -18 8 -19 -5 -3 -8 10 -17 15 -20 11 -4 -3 -2 -12 4 -19 7 -8 6 -14 -2 -20
-8 -5 -9 -3 -4 6 5 9 4 11 -3 6 -7 -4 -12 -11 -12 -16 0 -10 40 -7 59 5 9 5
12 4 8 -1 -3 -6 3 -16 15 -23 16 -10 19 -10 12 1 -10 16 22 -8 48 -35 16 -18
14 -52 -2 -42 -5 3 -11 -4 -15 -14 -3 -11 -19 -31 -36 -45 -16 -14 -29 -30
-29 -36 0 -6 -4 -8 -10 -5 -6 4 -7 -1 -3 -11 4 -11 3 -15 -5 -10 -14 9 -27
-33 -13 -47 7 -7 14 -7 23 0 7 6 21 9 30 8 11 -2 15 2 11 11 -3 8 -10 11 -16
7 -6 -3 -7 -1 -3 6 6 9 11 9 22 0 14 -11 19 -2 15 24 -1 5 3 6 9 2 9 -5 15 15
11 38 0 4 4 7 10 7 6 0 9 -7 5 -15 -3 -8 -1 -15 4 -15 6 0 10 9 10 20 0 12 -7
20 -17 20 -15 0 -16 2 -3 10 8 5 11 10 7 10 -4 0 -2 6 5 14 17 19 28 7 33 -35
3 -24 2 -30 -5 -19 -8 12 -10 11 -10 -7 0 -12 -8 -24 -17 -26 -16 -4 -16 -5
-2 -6 20 -1 33 -28 19 -36 -6 -4 -15 -3 -22 1 -7 4 -8 3 -4 -4 4 -6 1 -20 -6
-31 -9 -16 -15 -17 -26 -8 -15 12 -49 20 -37 9 4 -4 12 -7 18 -7 5 0 12 -6 15
-14 3 -8 0 -11 -7 -7 -6 4 -11 2 -11 -3 0 -6 -5 -11 -11 -11 -5 0 -8 4 -5 9 3
5 -2 15 -12 22 -15 13 -16 12 -4 -3 11 -13 11 -18 0 -24 -13 -8 -32 -14 -54
-16 -6 -1 -11 -7 -11 -15 0 -9 4 -10 11 -3 15 15 26 12 26 -6 0 -8 -4 -13 -8
-10 -5 3 -9 0 -10 -7 0 -7 -3 -25 -6 -42 -5 -21 -4 -26 3 -15 5 8 7 18 4 24
-4 5 -1 6 7 1 10 -6 12 -4 7 9 -4 10 -1 19 8 22 7 3 11 12 9 19 -8 21 12 26
27 7 13 -15 12 -16 -3 -3 -23 17 -23 4 -1 -23 10 -12 11 -16 4 -9 -7 6 -20 9
-28 6 -11 -5 -11 -10 3 -32 14 -20 14 -23 2 -14 -8 7 -18 10 -21 6 -10 -9 -9
-25 1 -19 5 3 9 -1 9 -9 0 -11 -4 -12 -14 -4 -17 14 -17 -2 0 -21 10 -12 9
-12 -5 -1 -10 7 -20 22 -24 33 -5 16 -8 18 -15 7 -12 -20 -11 -31 3 -23 7 4 8
3 4 -5 -4 -6 -12 -8 -18 -5 -8 5 -9 1 -5 -10 4 -11 3 -15 -4 -10 -6 3 -9 15
-6 25 8 30 -3 22 -14 -11 -6 -16 -16 -30 -22 -30 -7 0 -7 4 1 12 15 15 15 28
1 28 -5 0 -8 -4 -4 -9 3 -5 1 -12 -4 -16 -6 -3 -8 -12 -4 -20 9 -26 -22 -17
-51 14 -24 25 -32 28 -55 20 -25 -9 -25 -8 -6 6 19 15 18 16 -15 10 -38 -7
-53 -15 -27 -15 9 0 17 -4 17 -10 0 -5 13 -7 28 -4 20 4 32 0 43 -12 8 -10 9
-15 2 -11 -6 4 -13 2 -16 -5 -2 -7 -3 -5 -2 5 2 12 -4 17 -18 17 -12 0 -17 -4
-12 -8 6 -4 11 -14 13 -22 2 -11 -1 -11 -11 3 -15 18 -33 24 -22 7 3 -5 1 -10
-5 -10 -6 0 -8 -5 -5 -10 4 -6 11 -7 17 -4 7 5 8 2 4 -5 -6 -9 -13 -8 -27 5
-18 17 -27 8 -11 -12 4 -5 -1 -1 -11 10 -10 11 -16 25 -13 33 3 7 0 13 -7 13
-8 0 -6 4 3 10 10 6 11 10 3 10 -7 0 -13 5 -13 11 0 5 4 8 8 5 4 -2 8 4 8 14
0 10 -7 17 -16 15 -12 -1 -15 -18 -16 -76 -1 -53 0 -63 5 -34 6 37 7 38 15 15
4 -14 8 -29 7 -33 -1 -5 3 -6 8 -3 5 4 13 1 16 -5 4 -5 14 -8 22 -5 8 3 12 2
9 -3 -3 -5 4 -21 16 -37 13 -15 17 -25 10 -20 -7 4 -12 2 -12 -4 0 -6 -5 -8
-11 -5 -6 4 -8 13 -6 19 3 7 1 19 -4 27 -8 12 -10 12 -8 -1 3 -28 -1 -41 -10
-35 -6 3 -8 15 -6 26 3 17 1 18 -9 9 -11 -8 -15 -8 -19 2 -4 10 -6 10 -6 1 -1
-7 -6 -13 -12 -13 -5 0 -7 6 -3 13 6 10 4 10 -7 0 -7 -7 -18 -13 -23 -13 -6 0
-5 4 3 9 11 7 8 13 -12 31 -15 13 -23 28 -20 34 3 6 2 8 -2 3 -5 -4 -16 0 -25
8 -14 13 -17 13 -17 1 0 -8 5 -14 11 -13 6 1 10 -10 10 -25 -1 -15 2 -25 7
-22 4 2 5 12 2 22 -6 15 -5 15 10 3 15 -12 16 -16 3 -30 -7 -9 -12 -26 -10
-39 2 -13 0 -21 -4 -18 -5 3 -9 -1 -9 -9 0 -11 4 -12 13 -4 8 7 14 7 19 -1 3
-5 0 -10 -7 -10 -10 0 -10 -2 1 -9 11 -7 11 -9 0 -14 -10 -4 -9 -6 4 -6 13 -1
16 5 13 24 -3 13 0 27 5 31 5 3 7 10 4 15 -4 5 -2 9 3 9 10 0 22 -22 28 -47 1
-7 -3 -11 -8 -10 -6 1 -13 -4 -16 -12 -3 -9 0 -11 9 -6 8 5 11 4 6 -1 -5 -5
-13 -10 -18 -10 -5 -1 -12 -2 -16 -3 -4 0 2 -8 13 -17 10 -8 13 -13 7 -9 -9 4
-11 1 -7 -9 3 -9 11 -13 18 -9 6 4 5 -1 -3 -10 -11 -14 -11 -17 0 -17 10 0 10
-3 3 -8 -6 -4 -10 -15 -8 -25 2 -13 -2 -17 -12 -13 -10 4 -13 2 -7 -7 13 -22
11 -34 -11 -59 -11 -13 -20 -22 -19 -20 1 3 -7 12 -19 21 -18 15 -19 20 -7 42
16 30 20 89 5 86 -6 -1 -10 4 -8 11 1 8 -2 11 -8 7 -6 -4 -5 -14 3 -28 8 -12
13 -26 12 -32 -1 -16 -26 -57 -48 -79 -11 -12 -17 -15 -12 -8 6 11 3 11 -13 1
-12 -7 -18 -18 -15 -24 4 -6 1 -6 -6 1 -13 12 -61 7 -61 -6 0 -9 20 -8 37 3
14 9 12 -11 -5 -38 -8 -12 -11 -14 -10 -5 2 9 -1 17 -7 18 -5 1 -10 -6 -10
-15 0 -10 -4 -23 -8 -30 -4 -6 -3 -14 3 -18 5 -3 10 -1 10 5 0 6 4 9 9 5 6 -3
0 -16 -12 -28 -14 -14 -25 -18 -29 -12 -4 5 -8 6 -8 1 0 -4 -15 3 -32 16 -18
14 -41 24 -50 22 -9 -1 -19 5 -22 13 -5 11 -2 13 9 9 10 -3 13 -2 10 5 -4 6 1
20 11 32 10 12 -6 -2 -37 -30 -30 -29 -62 -53 -71 -53 -9 0 -18 -7 -22 -15 -9
-25 -21 -17 -59 38 -21 28 -51 67 -68 86 l-31 33 -24 -23 c-13 -12 -24 -27
-24 -33 0 -6 7 0 16 12 13 18 19 21 30 11 8 -6 14 -8 14 -4 0 27 120 -134 121
-163 0 -12 3 -10 10 7 8 19 12 21 24 11 8 -7 15 -17 15 -22 0 -6 -6 -6 -14 1
-22 18 -15 -13 9 -39 17 -18 20 -19 41 -5 17 11 25 12 30 3 4 -6 3 -8 -4 -4
-15 9 -28 -12 -31 -49 0 -9 -11 -20 -23 -25 -13 -5 -17 -9 -10 -9 6 -1 12 -9
12 -18 0 -13 2 -15 8 -5 15 22 62 -3 62 -33 0 -30 3 -30 -62 -4 -94 38 -103
40 -108 37 -8 -5 -8 -25 1 -39 6 -11 9 -10 15 4 8 21 24 22 24 2 0 -8 -6 -14
-12 -13 -7 2 -12 -2 -11 -8 1 -7 -6 -19 -16 -28 -15 -13 -18 -14 -18 -1 0 8 4
12 8 9 16 -10 18 14 2 27 -12 10 -14 10 -9 2 4 -7 2 -13 -3 -13 -6 0 -11 -9
-11 -21 0 -14 -5 -19 -14 -16 -10 4 -13 1 -10 -7 3 -7 -2 -16 -11 -20 -10 -3
-15 -13 -12 -21 4 -9 1 -12 -8 -8 -8 3 -18 -2 -21 -11 -3 -9 -12 -16 -18 -16
-14 0 -69 54 -66 65 1 4 -1 9 -3 12 -3 3 -5 -2 -3 -10 2 -18 48 -72 67 -80 8
-3 9 -6 4 -6 -6 -1 -9 -18 -7 -42 4 -39 3 -40 -17 -29 -12 6 -19 16 -15 21 4
7 -2 7 -15 -1 -13 -6 -19 -16 -14 -23 4 -7 0 -7 -10 2 -18 14 -24 26 -8 17 5
-3 15 2 22 11 8 10 9 14 2 10 -7 -4 -17 0 -23 10 -11 17 -11 17 -6 0 3 -10 2
-16 -3 -13 -13 8 -21 -20 -9 -32 6 -6 6 -12 -3 -17 -7 -5 -10 -4 -6 2 4 6 0
16 -9 23 -13 12 -14 10 -10 -15 5 -26 5 -27 -14 -10 -25 22 -26 9 -2 -19 16
-20 16 -20 -2 -6 -23 18 -48 22 -43 7 3 -7 11 -11 18 -9 9 2 7 -4 -5 -17 -10
-11 -23 -18 -27 -15 -11 6 -12 15 -1 12 4 -2 9 1 12 6 3 5 -3 10 -12 12 -10 1
-18 -3 -18 -9 0 -7 -9 3 -20 21 -11 18 -17 38 -14 44 4 7 2 8 -4 4 -7 -4 -10
-22 -7 -44 4 -34 3 -35 -10 -18 -8 10 -12 22 -10 26 2 4 -2 7 -10 7 -11 0 -12
-4 -4 -13 12 -15 3 -37 -12 -29 -5 3 -6 0 -4 -7 4 -9 -2 -14 -15 -14 -11 0
-20 4 -20 9 0 4 -10 -1 -22 -12 -11 -11 -26 -18 -31 -14 -6 3 -7 1 -3 -5 4 -7
1 -12 -8 -12 -8 0 -18 -9 -21 -20 -4 -11 -11 -17 -17 -14 -7 4 -8 2 -4 -4 4
-7 2 -20 -3 -29 -8 -13 -10 -14 -11 -4 0 11 -4 9 -15 -5 -8 -10 -15 -23 -15
-28 0 -6 6 -2 13 9 10 12 16 14 21 7 4 -7 2 -12 -4 -12 -6 0 -8 -4 -5 -10 3
-5 0 -10 -7 -10 -9 0 -9 -3 2 -10 12 -8 12 -10 -5 -11 l-20 0 20 -9 c12 -5 14
-9 6 -9 -11 -1 -11 -5 2 -19 10 -10 14 -22 10 -25 -3 -4 -1 -7 5 -7 7 0 12 -7
12 -15 0 -8 16 -21 35 -29 30 -13 35 -20 35 -47 0 -28 -3 -31 -22 -25 -13 3
-30 6 -39 6 -11 0 -19 12 -24 37 -5 26 -9 33 -15 23 -5 -8 -6 -19 -2 -25 12
-18 13 -47 1 -40 -6 4 -8 13 -6 19 3 7 -1 13 -8 13 -10 0 -11 -5 -5 -18 7 -12
4 -24 -10 -41 -11 -12 -19 -18 -20 -11 0 6 4 14 9 17 10 6 9 31 -1 42 -4 3 -5
-2 -4 -13 2 -10 -5 -29 -14 -43 -17 -24 -20 -31 -20 -47 0 -5 -5 -1 -10 7 -6
10 -4 20 6 31 12 13 12 19 3 25 -7 4 -10 3 -6 -3 4 -6 0 -16 -8 -23 -8 -7 -12
-17 -8 -23 3 -5 7 -26 9 -45 2 -22 -1 -31 -5 -23 -10 16 -19 3 -16 -21 2 -10
0 -16 -3 -15 -4 1 -7 -1 -7 -4 0 -4 -8 -16 -18 -26 -9 -11 -14 -24 -10 -28 5
-5 -1 -3 -11 5 -18 14 -19 13 -13 -3 4 -11 3 -16 -3 -12 -14 9 -12 -8 3 -24
10 -11 9 -12 -3 -5 -8 5 -19 9 -25 9 -16 2 -45 -27 -38 -38 3 -6 1 -7 -6 -3
-9 6 -9 11 0 22 8 9 8 14 1 14 -6 0 -15 -7 -20 -16 -8 -15 -10 -15 -15 0 -5
12 -3 15 6 10 7 -5 6 0 -3 12 -8 10 -15 21 -16 22 -7 12 3 -56 10 -68 7 -12 6
-13 -4 -3 -8 7 -15 21 -17 30 -5 27 6 65 17 58 5 -3 7 0 4 8 -5 13 3 20 31 27
6 1 19 9 30 16 23 17 35 18 35 3 0 -5 -4 -8 -9 -5 -11 7 -8 -50 3 -61 4 -4 5
6 2 22 -5 21 -4 24 2 11 8 -19 9 -19 14 1 3 11 2 27 -3 35 -6 10 -4 20 6 28 8
7 12 17 8 23 -3 6 -1 7 5 3 7 -4 12 -1 12 6 0 8 5 19 12 26 15 15 18 72 3 72
-5 0 -4 4 3 9 11 7 11 9 0 13 -10 4 -14 -3 -14 -27 0 -19 3 -32 6 -30 4 2 7
-2 7 -10 0 -10 -4 -12 -12 -5 -12 10 -41 -11 -30 -22 3 -3 -1 -10 -8 -17 -11
-9 -17 -8 -28 5 -11 13 -10 17 2 24 12 8 11 12 -4 27 -14 14 -18 15 -15 3 2
-8 -2 -14 -8 -13 -6 1 -11 -4 -11 -12 0 -8 3 -12 6 -10 4 2 11 -8 18 -21 13
-29 1 -41 -18 -17 -12 14 -12 16 0 8 10 -5 12 -4 7 3 -11 18 -14 16 -41 -37
-13 -27 -29 -52 -35 -56 -6 -4 -7 -11 -4 -17 5 -8 1 -9 -12 -4 -15 5 -16 4 -7
-5 14 -14 6 -42 -10 -32 -6 4 -7 1 -2 -7 10 -15 15 -70 6 -67 -3 1 -6 -2 -6
-8 0 -5 4 -9 9 -7 5 2 4 -4 -4 -12 -14 -17 -25 -22 -15 -7 3 5 1 12 -5 16 -5
3 -10 0 -10 -7 0 -10 -2 -10 -9 1 -6 9 -11 10 -15 2 -4 -6 -4 -16 -1 -21 4 -6
1 -9 -7 -8 -7 2 -12 -2 -11 -8 1 -6 -10 -10 -25 -9 -19 1 -28 8 -33 25 l-7 25
-2 -25 c-1 -14 -4 -19 -7 -12 -2 6 -9 10 -13 7 -5 -3 -12 0 -16 6 -4 7 -3 9 4
5 6 -3 13 -3 16 2 2 4 -6 9 -18 10 -18 1 -23 -3 -22 -21 1 -22 -4 -24 -38 -11
-13 5 -17 4 -13 -3 4 -6 32 -21 62 -34 30 -12 55 -26 55 -30 0 -4 -12 -1 -27
7 -36 18 -60 19 -45 1 9 -10 4 -13 -23 -13 -18 0 -32 4 -29 7 2 4 0 10 -6 14
-6 4 -7 11 -4 17 4 7 2 8 -5 4 -9 -6 -9 -11 1 -23 10 -13 8 -15 -12 -12 -39 4
-90 -11 -90 -27 0 -8 -5 -13 -12 -11 -7 1 -13 -5 -14 -13 -3 -36 -5 -40 -15
-40 -5 0 -7 6 -3 13 4 7 3 9 -2 4 -5 -5 -10 -13 -10 -18 -1 -5 -2 -13 -3 -19
0 -5 -8 -7 -17 -3 -10 4 -17 -2 -21 -17 -4 -17 -8 -19 -15 -8 -6 8 -7 5 -2
-12 6 -22 5 -23 -9 -11 -9 7 -15 16 -14 19 1 4 -1 8 -6 10 -6 2 -9 -2 -6 -10
0 -2 2 -14 5 -27 4 -20 2 -22 -11 -11 -8 7 -13 16 -10 20 3 5 2 11 -2 13 -5 3
-10 -52 -11 -121 -2 -70 -5 -129 -8 -131 -2 -2 -4 47 -5 110 0 123 -7 200 -18
211 -4 5 -6 -13 -5 -39 1 -30 -1 -41 -7 -32 -8 13 -13 5 -10 -14 1 -5 -3 -6
-9 -2 -6 3 -8 11 -5 16 4 5 2 9 -3 9 -5 0 -14 -10 -21 -23 -6 -12 -9 -14 -7
-4 4 11 0 17 -10 17 -8 0 -13 4 -10 8 3 5 19 8 36 7 16 -1 28 0 25 3 -3 3 -1
10 5 16 14 18 -2 37 -18 20 -10 -11 -10 -14 0 -14 9 0 9 -3 -2 -10 -19 -12
-33 -13 -26 -2 3 5 -1 9 -9 9 -8 0 -13 -3 -10 -5 3 -3 0 -11 -6 -19 -10 -11
-15 -11 -28 -1 -14 11 -14 11 -3 -4 9 -11 10 -18 2 -23 -16 -10 -2 -24 20 -20
12 2 35 -11 62 -36 23 -21 36 -39 29 -39 -7 0 -21 -10 -32 -22 -17 -22 -25
-15 -20 15 1 5 -3 6 -8 2 -6 -3 -8 -12 -4 -20 3 -8 0 -15 -7 -15 -8 0 -11 9
-8 25 5 23 3 25 -36 25 -40 0 -103 -30 -89 -43 3 -4 1 -7 -6 -7 -7 0 -10 -4
-6 -9 3 -5 1 -12 -4 -16 -5 -3 -8 -14 -6 -25 3 -15 -2 -20 -18 -20 -18 0 -19
-2 -7 -10 13 -8 12 -10 -4 -10 -12 0 -16 5 -13 15 4 8 2 17 -2 20 -14 8 -3 74
17 103 22 31 25 59 6 59 -7 0 -11 -4 -8 -8 2 -4 0 -10 -6 -14 -5 -3 -10 0 -11
7 0 7 -7 0 -14 -17 -9 -18 -14 -23 -15 -13 0 9 -4 19 -9 23 -6 3 -6 -6 -1 -25
5 -19 5 -28 -1 -25 -5 4 -9 14 -9 23 0 14 -2 15 -10 2 -6 -9 -5 -20 3 -30 10
-12 9 -13 -3 -4 -13 9 -50 11 -65 4 -3 -1 -11 -3 -17 -4 -7 -1 -12 -8 -10 -16
3 -10 -3 -9 -17 4 -22 20 -28 32 -11 21 6 -4 7 1 3 11 -5 15 -7 15 -15 0 -5
-9 -7 -20 -3 -25 3 -5 1 -12 -4 -15 -5 -3 -8 7 -7 23 1 17 -2 28 -6 25 -4 -3
-8 -14 -8 -24 0 -10 -4 -21 -9 -24 -5 -4 -6 9 -1 29 5 24 4 37 -4 42 -6 3 -8
3 -5 -1 10 -11 -6 -61 -19 -62 -7 -1 -17 -2 -23 -3 -8 -1 -7 -7 2 -19 12 -16
12 -16 -5 0 -19 16 -13 44 6 32 7 -4 8 -2 4 5 -6 8 -12 9 -20 2 -7 -6 -15 -9
-17 -7 -2 2 -5 -7 -6 -21 0 -16 2 -21 7 -14 5 10 9 9 13 -2 4 -10 -1 -14 -16
-13 -16 1 -21 -4 -20 -19 1 -11 0 -14 -3 -7 -3 6 -10 9 -15 6 -6 -3 -5 -12 3
-22 11 -15 11 -15 -2 -5 -12 9 -19 8 -32 -1 -10 -7 -14 -17 -10 -21 4 -5 1 -5
-6 -1 -7 4 -10 12 -7 17 4 5 -1 9 -10 9 -10 0 -13 5 -9 13 4 6 3 9 -1 4 -5 -4
-20 0 -34 10 -24 15 -25 15 -12 0 12 -15 11 -17 -7 -17 -12 0 -24 5 -27 10 -4
7 -13 7 -26 0 -11 -6 -17 -15 -15 -19 3 -4 -1 -8 -9 -8 -8 0 -12 4 -9 9 4 5
-2 8 -12 6 -11 -2 -18 2 -17 10 4 16 -14 16 -20 0 -4 -10 -6 -9 -6 1 -1 11 -4
11 -18 0 -15 -13 -16 -11 -10 16 l7 30 -16 -29 c-16 -28 -17 -29 -30 -11 -11
15 -11 22 -1 34 11 14 10 14 -5 2 -14 -11 -18 -11 -18 -1 0 8 -3 10 -6 7 -4
-4 -2 -12 4 -20 8 -10 6 -16 -11 -27 -20 -12 -21 -12 -9 3 9 10 10 17 2 22 -6
3 -8 10 -5 15 3 5 -3 7 -15 5 -11 -2 -22 0 -25 5 -9 14 -40 4 -40 -13 0 -9 -5
-21 -11 -27 -8 -8 -10 -1 -7 22 l3 33 -10 -32 c-6 -18 -13 -33 -16 -33 -4 0
-4 6 -1 14 3 8 -3 22 -14 32 -15 13 -20 15 -17 4 2 -9 -5 -14 -17 -14 -11 0
-19 5 -18 10 1 6 -5 11 -12 11 -11 0 -12 -4 -4 -13 7 -8 7 -14 -1 -19 -5 -3
-10 -12 -10 -18 0 -7 4 -6 11 3 9 13 10 13 6 0 -2 -10 -17 -15 -44 -15 -22 0
-48 -7 -59 -15 -12 -9 -15 -9 -7 -1 6 7 9 21 6 30 -4 14 -3 14 6 1 9 -13 11
-13 11 0 0 12 2 12 9 1 6 -9 9 -5 9 13 -1 24 -2 25 -14 9 -7 -10 -14 -14 -14
-9 0 5 -7 3 -15 -4 -8 -7 -13 -16 -10 -20 3 -5 1 -12 -5 -15 -6 -4 -9 -1 -8 5
2 7 -7 14 -20 16 -13 2 -21 0 -17 -5 3 -5 1 -13 -5 -16 -6 -4 -10 -3 -9 2 4
21 -2 24 -18 12 -16 -12 -17 -12 -6 1 12 16 12 45 0 55 -4 3 -5 2 -2 -2 3 -3
-1 -13 -8 -21 -10 -13 -9 -14 3 -7 9 5 8 0 -4 -13 l-19 -22 -24 22 c-30 28
-54 31 -60 8 -3 -10 -12 -17 -21 -15 -10 1 -21 0 -27 -3 -13 -8 -45 -10 -40
-3 2 4 -3 17 -11 31 -7 14 -13 20 -14 14 0 -5 -7 -19 -15 -30 -14 -18 -14 -17
-5 9 15 43 11 46 -11 7 -19 -34 -19 -28 -2 30 3 9 2 11 -4 5 -13 -16 -33 -16
-33 1 0 9 5 12 12 8 7 -4 8 -3 4 4 -10 17 -13 15 -30 -19 -13 -26 -14 -35 -3
-48 10 -14 10 -14 -4 -4 -9 7 -18 11 -20 8 -3 -2 -6 5 -7 15 -4 43 -6 49 -14
44 -4 -3 -3 -14 2 -25 8 -13 7 -19 0 -19 -6 0 -9 -4 -5 -9 3 -5 1 -13 -5 -16
-6 -4 -9 -1 -8 6 2 6 -3 14 -11 17 -9 3 -11 0 -6 -9 6 -11 5 -12 -6 -2 -20 19
-33 16 -18 -4 12 -16 12 -17 -2 -6 -9 7 -19 10 -22 6 -4 -3 -9 2 -13 11 -3 9
-10 16 -16 16 -5 0 -6 -6 -2 -12 6 -10 5 -10 -8 0 -12 10 -17 10 -27 -1 -6 -8
-7 -18 -3 -22 4 -5 1 -5 -6 -1 -9 6 -10 11 -3 20 6 7 7 17 3 21 -4 5 -1 5 7 0
10 -5 12 -4 7 4 -4 6 -11 9 -16 6 -5 -3 -10 0 -13 7 -2 7 -3 3 -1 -8 2 -12 -4
-28 -14 -35 -15 -13 -16 -12 -3 4 9 12 10 21 3 30 -6 6 -10 16 -10 20 0 5 -3
12 -7 15 -4 4 -6 3 -5 -3 5 -22 -1 -27 -18 -14 -15 12 -15 12 -5 -1 6 -8 11
-19 11 -23 0 -5 4 -12 8 -15 4 -4 4 -2 1 4 -3 6 1 11 9 11 19 0 1 -20 -22 -23
-9 -1 -13 0 -10 3 3 3 1 14 -5 25 -6 11 -13 17 -16 14 -4 -3 -13 0 -22 7 -14
10 -14 10 -5 -3 11 -15 25 -60 19 -60 -2 0 -12 16 -21 36 -14 30 -19 33 -26
20 -5 -9 -14 -14 -19 -10 -6 3 -5 12 3 22 12 15 11 16 -5 3 -9 -8 -15 -16 -12
-19 3 -3 0 -10 -5 -17 -7 -8 -5 -12 5 -12 8 0 12 3 10 7 -2 3 7 6 19 6 23 0
29 -17 12 -33 -4 -4 -6 -3 -4 2 2 6 -1 10 -7 10 -5 0 -9 -4 -7 -10 2 -5 -2 -4
-9 2 -10 10 -17 9 -33 -5 -16 -13 -18 -13 -8 -1 6 9 9 19 5 22 -3 4 -12 -1
-20 -11 -12 -15 -12 -15 -7 0 7 20 -15 19 -42 -2 -18 -14 -18 -14 -3 5 13 18
15 26 10 51 0 4 -8 1 -16 -6 -17 -14 -20 -1 -5 18 5 7 3 6 -5 -1 -10 -8 -13
-20 -9 -31 5 -14 9 -15 15 -4 5 8 9 9 9 2 0 -6 -7 -17 -15 -24 -12 -10 -13
-16 -3 -29 12 -14 11 -15 -5 -2 -12 9 -14 18 -8 24 10 10 -12 67 -25 67 -3 0
-2 -4 1 -10 12 -20 14 -51 3 -44 -8 5 -9 1 -5 -10 4 -10 3 -15 -3 -11 -6 4 -8
17 -6 29 2 13 0 29 -5 37 -5 8 -9 9 -9 3 0 -6 -7 -11 -15 -11 -9 0 -14 6 -11
14 4 8 1 11 -5 8 -6 -4 -8 -13 -5 -21 3 -8 1 -14 -4 -14 -5 0 -7 -9 -5 -20 2
-11 0 -18 -4 -16 -4 3 -7 21 -6 41 2 19 -1 32 -6 29 -5 -3 -9 -955 -9 -2190
l0 -2184 6000 0 6000 0 0 4000 0 4000 -3585 0 c-1972 0 -3585 -4 -3585 -8 0
-4 5 -13 12 -20 9 -9 8 -16 -5 -29 -12 -14 -13 -23 -6 -38 10 -19 9 -19 -4 -2
-11 14 -16 15 -20 5 -3 -7 -4 -2 -2 12 2 14 4 25 5 25 1 0 3 13 5 30 3 19 1
25 -4 16 -7 -11 -9 -11 -14 0 -5 12 -6 12 -6 0 -1 -11 -4 -11 -18 0 -16 12
-17 12 -7 -1z m114 -6 c0 -8 -19 -13 -24 -6 -3 5 1 9 9 9 8 0 15 -2 15 -3z
m-82 -46 c-2 -24 1 -43 7 -43 6 0 16 -4 23 -8 19 -13 35 2 21 19 -10 12 -9 17
0 27 10 9 11 8 5 -8 -7 -18 -6 -19 12 -5 17 13 18 13 8 0 -5 -8 -9 -21 -8 -27
1 -7 2 -18 3 -24 0 -5 5 -8 11 -4 5 3 7 13 3 23 -3 11 1 9 11 -6 10 -12 23
-19 29 -16 7 4 9 3 4 -1 -4 -5 1 -18 10 -29 17 -20 17 -20 -1 -6 -18 14 -19
13 -13 -2 3 -10 2 -28 -4 -40 -8 -21 -9 -20 -5 7 3 17 3 24 0 17 -6 -13 -24
-7 -24 9 0 6 5 7 10 4 6 -3 10 -1 10 5 0 7 -6 10 -12 7 -7 -2 -19 3 -26 12
-11 14 -11 13 -2 -7 6 -12 8 -28 4 -34 -5 -7 -3 -8 6 -3 9 6 11 4 5 -5 -5 -9
-4 -11 3 -6 7 4 12 1 12 -9 0 -9 -4 -14 -8 -11 -4 2 -8 -4 -8 -14 0 -10 3 -17
6 -15 3 2 7 -5 7 -16 1 -11 -2 -17 -7 -14 -4 3 -4 -12 0 -32 5 -21 5 -44 -1
-54 -12 -24 -11 -32 4 -23 6 4 3 -4 -9 -17 -22 -25 -29 -84 -12 -106 5 -7 5
-14 -2 -18 -6 -4 -9 -1 -8 5 2 7 -5 14 -14 15 -10 2 -18 -3 -18 -10 0 -7 -10
-15 -22 -18 -22 -6 -22 -6 -4 8 11 8 16 15 10 15 -5 0 -2 5 6 10 13 9 13 10 0
10 -13 0 -13 1 0 10 12 8 12 10 1 10 -12 0 -11 3 1 18 9 9 14 24 13 32 -2 8
-5 27 -8 42 -3 16 -1 27 5 25 16 -3 32 29 24 49 -4 11 -7 20 -7 22 2 4 11 2
12 -3 0 -2 4 -18 9 -35 5 -17 6 -28 2 -26 -4 2 -8 -12 -10 -32 -1 -19 1 -32 5
-29 6 7 13 37 13 62 1 12 -8 149 -9 153 -1 1 -1 4 -1 7 1 14 -32 65 -39 61
-18 -11 -49 39 -46 74 3 40 3 40 10 40 3 0 4 -19 3 -42z m138 -175 c-1 -16 2
-35 8 -43 10 -13 9 -13 -6 -1 -17 12 -17 11 -12 -20 4 -19 11 -40 17 -46 5 -7
6 -13 2 -13 -4 0 -1 -8 6 -17 13 -16 12 -17 -3 -4 -16 12 -19 10 -28 -13 -5
-14 -11 -26 -12 -26 -2 0 -3 43 -4 95 0 52 3 92 8 89 4 -3 11 2 14 10 9 24 13
19 10 -11z m15 -190 c13 -16 12 -17 -3 -4 -10 7 -18 15 -18 17 0 8 8 3 21 -13z
m-64 -38 c0 -8 -4 -12 -9 -9 -5 3 -6 10 -3 15 9 13 12 11 12 -6z m-116 -114
c-8 -5 -9 -11 -3 -15 8 -5 10 -70 2 -86 -1 -3 -1 -9 0 -15 1 -5 -2 -6 -7 -2
-4 5 -9 13 -9 18 -1 5 -3 11 -4 14 -8 15 -4 32 9 49 9 11 11 16 4 13 -6 -4
-14 -3 -17 2 -7 11 24 45 32 36 4 -3 0 -10 -7 -14z m339 -8 c11 2 106 -26 115
-35 5 -4 -12 -2 -38 6 -26 8 -47 12 -47 9 0 -2 -6 -1 -12 4 -19 11 -40 14 -65
8 -22 -5 -23 -11 -23 -87 0 -45 3 -79 6 -75 9 9 62 -20 90 -48 l23 -24 -27
-32 c-15 -17 -41 -46 -58 -63 -31 -32 -49 -82 -33 -92 5 -3 9 -1 9 3 0 5 9 9
20 10 35 3 66 50 61 91 -3 16 27 52 42 52 5 0 3 -8 -4 -17 -10 -11 -10 -14 -1
-9 7 4 12 1 12 -9 0 -10 -5 -14 -12 -10 -7 4 -5 0 4 -8 16 -12 16 -16 3 -33
-15 -19 -15 -19 -9 1 l6 20 -12 -20 c-7 -11 -19 -25 -27 -32 -8 -6 -16 -20
-18 -30 -1 -10 -7 -17 -13 -16 -5 1 -8 -6 -5 -16 3 -14 -4 -21 -28 -30 -17 -6
-36 -11 -40 -11 -5 0 -9 33 -10 73 0 49 -3 66 -9 52 -7 -16 -9 -17 -9 -3 -1 9
3 19 8 22 5 3 9 35 9 71 0 66 0 66 -21 48 -19 -18 -20 -18 -8 5 20 38 6 24
-28 -28 -27 -42 -35 -48 -51 -40 -14 8 -18 6 -16 -5 1 -8 8 -21 16 -28 11 -9
11 -8 0 7 -13 17 -13 19 0 14 8 -2 15 -16 15 -29 1 -13 6 -34 13 -47 7 -12 10
-32 6 -44 -3 -12 -2 -18 3 -15 5 4 10 0 10 -8 0 -9 -8 -7 -29 8 -26 19 -45 52
-40 70 1 4 -2 7 -6 7 -8 0 -9 50 -2 58 4 3 7 20 9 37 1 11 11 14 33 13 26 -2
33 1 33 15 0 9 -4 17 -10 17 -5 0 -10 -4 -10 -10 0 -5 -3 -10 -7 -10 -5 0 -13
0 -20 0 -7 0 3 11 22 25 38 28 44 30 35 13 -4 -7 1 -4 10 7 9 11 18 19 20 18
20 -11 25 6 25 75 0 78 9 105 40 114 8 3 22 2 30 -2 8 -5 17 -8 20 -7z m-385
-128 c-1 -14 -5 -28 -10 -32 -4 -5 -5 -2 -1 5 4 6 3 12 -3 12 -5 0 -12 -6 -15
-12 -3 -7 -3 -2 0 12 5 20 15 33 29 40 1 0 0 -11 0 -25z m349 -1 c3 -8 2 -12
-4 -9 -6 3 -10 10 -10 16 0 14 7 11 14 -7z m237 -33 c37 -37 39 -42 39 -101 0
-55 -3 -65 -29 -91 -16 -16 -35 -29 -42 -29 -20 0 -76 67 -83 100 -13 67 -7
110 19 135 33 34 51 31 96 -14z m207 14 c-3 -3 -9 2 -12 12 -6 14 -5 15 5 6 7
-7 10 -15 7 -18z m-668 -9 c0 -2 -8 -10 -17 -17 -16 -13 -17 -12 -4 4 13 16
21 21 21 13z m677 -53 c-3 -10 -5 -4 -5 12 0 17 2 24 5 18 2 -7 2 -21 0 -30z
m-712 -120 c-1 -10 1 -23 6 -29 5 -6 4 -11 -5 -11 -10 0 -15 35 -7 55 4 10 9
-1 6 -15z m404 -59 l31 -6 0 -109 c0 -63 -4 -109 -10 -109 -5 0 -34 9 -65 21
l-56 21 3 78 c2 43 6 76 9 74 4 -2 14 5 24 16 20 22 20 22 64 14z m-233 -59
c-1 -8 -5 -17 -8 -21 -4 -3 -5 2 -4 13 2 10 -2 25 -8 33 -9 13 -9 13 6 2 9 -7
15 -19 14 -27z m366 8 c14 -16 34 -44 43 -63 19 -37 33 -160 19 -160 -5 0 -36
8 -69 18 l-60 18 -3 107 c-3 106 -3 107 21 107 13 0 35 -12 49 -27z m-325
-125 c-2 -13 -4 -3 -4 22 0 25 2 35 4 23 2 -13 2 -33 0 -45z m19 -63 c6 -19 7
-32 3 -30 -10 7 -29 65 -21 65 4 0 12 -16 18 -35z m-109 3 c-3 -8 -6 -5 -6 6
-1 11 2 17 5 13 3 -3 4 -12 1 -19z m2180 -95 c-3 -10 -5 -2 -5 17 0 19 2 27 5
18 2 -10 2 -26 0 -35z m2531 13 c29 -15 212 -56 249 -56 26 0 63 -44 63 -76 0
-13 -2 -24 -4 -24 -10 0 -354 80 -369 86 -21 8 -21 17 -2 54 17 34 26 36 63
16z m232 -26 c0 -5 -4 -10 -10 -10 -5 0 -10 5 -10 10 0 6 5 10 10 10 6 0 10
-4 10 -10z m-2200 -21 c-13 -6 -27 -12 -30 -15 -3 -3 -8 -56 -11 -117 l-5
-112 -2 105 c-2 116 10 151 51 149 21 0 21 -1 -3 -10z m-2170 -14 c-7 -8 -22
-14 -34 -14 -20 1 -20 2 -1 6 11 3 24 9 30 14 15 14 19 10 5 -6z m1617 -51
c-3 -3 -12 -4 -19 -1 -8 3 -5 6 6 6 11 1 17 -2 13 -5z m868 -14 c10 -11 16
-20 13 -20 -3 0 -13 9 -23 20 -10 11 -16 20 -13 20 3 0 13 -9 23 -20z m1803
-20 c75 -17 140 -34 145 -39 4 -4 6 -93 5 -197 -3 -189 -3 -189 -26 -192 -21
-3 -240 45 -319 69 l-33 11 0 195 0 196 46 -7 c25 -3 107 -20 182 -36z m-5044
-38 c3 -5 -1 -9 -9 -9 -8 0 -12 4 -9 9 3 4 7 8 9 8 2 0 6 -4 9 -8z m3034 -17
c27 -22 33 -24 56 -13 23 10 31 8 54 -9 61 -45 59 -99 -5 -166 -59 -60 -71
-64 -99 -31 -46 56 -86 124 -94 160 -7 31 -5 40 15 60 30 30 36 30 73 -1z
m-2999 -15 c1 18 38 22 38 4 0 -7 -6 -10 -13 -7 -6 2 -15 -1 -19 -6 -3 -6 -11
-8 -17 -5 -6 4 -9 1 -6 -7 3 -8 1 -24 -3 -36 -5 -13 -4 -24 2 -27 5 -2 4 -3
-3 -2 -14 3 -20 76 -6 76 4 0 8 8 9 18 0 14 2 14 9 -3 6 -14 9 -15 9 -5z
m1466 -5 c54 -17 33 -18 -30 -1 -27 8 -41 14 -30 14 11 0 38 -5 60 -13z m141
-36 c46 -12 83 -24 81 -26 -5 -4 -169 36 -176 43 -8 7 8 4 95 -17z m-1822 -17
c3 -5 -1 -9 -9 -9 -8 0 -12 4 -9 9 3 4 7 8 9 8 2 0 6 -4 9 -8z m310 -16 c17 7
23 -11 6 -21 -16 -10 -12 -21 13 -34 19 -10 18 -11 -15 -6 -32 5 -38 3 -38
-12 0 -15 2 -16 10 -3 8 13 11 13 27 -2 9 -10 15 -20 12 -22 -9 -10 -90 17
-86 28 3 6 10 10 16 9 17 -4 13 14 -4 21 -8 3 -15 10 -15 17 0 6 7 8 15 5 8
-3 22 -9 30 -12 8 -3 15 -1 15 5 0 6 -11 13 -25 17 -14 3 -25 13 -25 20 0 12
4 12 24 -1 13 -8 31 -13 40 -9z m1263 -8 c-3 -7 -5 -2 -5 12 0 14 2 19 5 13 2
-7 2 -19 0 -25z m-1741 0 c-3 -13 -5 -29 -5 -37 -1 -19 -12 -8 -15 16 -3 16
10 43 20 43 2 0 2 -10 0 -22z m2111 6 c-3 -3 -12 -4 -19 -1 -8 3 -5 6 6 6 11
1 17 -2 13 -5z m40 -10 c-3 -3 -12 -4 -19 -1 -8 3 -5 6 6 6 11 1 17 -2 13 -5z
m-2072 -12 c-8 -8 16 -32 26 -26 5 3 9 -3 9 -12 0 -10 -3 -14 -7 -11 -3 4 -12
2 -20 -5 -8 -6 -13 -7 -12 -2 4 15 -12 44 -21 39 -5 -3 -12 0 -16 6 -4 8 -3 9
4 5 7 -4 12 -3 12 2 0 5 7 9 15 9 8 0 13 -3 10 -5z m268 -38 c-4 -31 -2 -36
11 -31 21 8 20 5 -3 -15 -18 -15 -19 -14 -18 37 1 30 4 52 8 49 4 -2 5 -20 2
-40z m297 21 c0 -8 -4 -15 -10 -15 -5 0 -10 7 -10 15 0 8 5 15 10 15 6 0 10
-7 10 -15z m1097 -7 c-3 -8 -6 -5 -6 6 -1 11 2 17 5 13 3 -3 4 -12 1 -19z
m484 5 c13 -16 12 -17 -3 -4 -10 7 -18 15 -18 17 0 8 8 3 21 -13z m-1535 -6
c8 3 14 0 14 -7 0 -6 5 -8 10 -5 6 3 10 1 10 -4 0 -16 -46 -13 -59 2 -6 8 -8
17 -4 21 4 4 9 3 11 -3 2 -5 10 -7 18 -4z m69 -27 c3 -5 -1 -10 -10 -10 -9 0
-13 5 -10 10 3 6 8 10 10 10 2 0 7 -4 10 -10z m-114 -12 c0 -9 2 -9 5 -2 3 6
16 9 29 6 14 -2 22 -8 19 -13 -3 -5 2 -6 10 -3 9 4 16 1 16 -6 0 -10 3 -10 15
0 12 10 16 9 21 -4 4 -9 5 -19 3 -21 -8 -8 -133 31 -137 43 -2 6 1 12 7 12 6
0 11 -6 12 -12z m-284 -50 c-3 -8 -6 -5 -6 6 -1 11 2 17 5 13 3 -3 4 -12 1
-19z m291 4 c6 -18 -15 -14 -22 4 -4 10 -1 14 6 12 6 -2 14 -10 16 -16z m70
-7 c12 -3 22 -11 22 -16 0 -6 -9 -8 -20 -5 -11 3 -29 9 -40 12 -11 3 -20 10
-20 15 0 6 8 8 18 5 9 -2 27 -7 40 -11z m1283 5 c5 0 9 -75 9 -174 l0 -173
-25 5 -25 4 0 175 c0 156 2 174 16 169 9 -3 20 -6 25 -6z m-153 -152 c1 -82 0
-148 -3 -148 -4 0 -15 5 -26 10 -17 10 -19 23 -19 151 0 140 0 140 23 137 22
-3 22 -6 25 -150z m-1058 116 c0 -8 -4 -12 -10 -9 -5 3 -10 10 -10 16 0 5 5 9
10 9 6 0 10 -7 10 -16z m2804 -105 c-9 -10 -22 -19 -28 -19 -6 0 0 7 12 16 14
10 23 27 23 47 2 32 2 32 6 4 3 -18 -2 -36 -13 -48z m-3135 8 c6 -8 8 -17 4
-20 -7 -8 -33 11 -33 24 0 13 16 11 29 -4z m1471 -93 c0 -93 -1 -95 -22 -92
-22 3 -23 8 -26 96 l-3 92 26 0 25 0 0 -96z m-1420 66 c0 -11 -4 -20 -9 -20
-14 0 -23 18 -16 30 10 17 25 11 25 -10z m112 -10 c13 0 18 -8 18 -25 0 -23
-2 -24 -20 -13 -11 7 -20 17 -20 23 0 5 -4 4 -9 -4 -5 -7 -14 -11 -20 -7 -7 5
-7 12 1 26 8 13 16 16 22 10 6 -6 18 -10 28 -10z m1546 -114 c3 -107 3 -107
-20 -104 -22 3 -23 7 -26 115 l-3 113 23 -9 c22 -8 23 -14 26 -115z m-1203 8
c151 -41 185 -53 185 -65 0 -15 -22 -11 -182 32 -84 23 -170 46 -190 51 -27 7
-38 16 -38 29 0 17 3 17 48 3 26 -8 106 -30 177 -50z m-1118 41 c0 -8 -4 -12
-9 -9 -5 3 -6 10 -3 15 9 13 12 11 12 -6z m633 0 c0 -8 -7 -15 -15 -15 -8 0
-15 7 -15 15 0 8 7 15 15 15 8 0 15 -7 15 -15z m1608 -62 c3 -72 0 -79 -32
-67 -13 5 -16 22 -16 76 0 66 1 69 23 66 20 -3 22 -9 25 -75z m-2409 22 c11 2
29 -7 42 -23 13 -15 16 -20 7 -13 -10 7 -18 10 -18 6 0 -4 -6 -2 -13 4 -8 6
-18 7 -22 3 -5 -4 -4 0 0 8 7 12 6 13 -7 3 -8 -7 -18 -10 -21 -6 -4 3 -7 1 -7
-6 0 -7 6 -11 14 -8 8 3 17 3 20 -1 8 -7 33 -13 64 -16 12 0 22 -4 22 -8 0
-14 -20 -19 -37 -10 -10 6 -38 13 -63 16 -25 3 -55 8 -68 10 -13 3 -20 1 -17
-5 4 -5 11 -7 16 -4 5 4 9 -2 9 -12 0 -11 5 -24 10 -29 8 -8 7 -14 -3 -22 -11
-9 -18 -7 -33 10 -10 12 -14 18 -7 15 20 -12 26 13 8 33 -17 19 -17 20 6 29
13 5 33 18 44 29 16 15 22 16 28 6 4 -7 16 -11 26 -9z m881 15 c0 -5 -7 -10
-15 -10 -8 0 -15 5 -15 10 0 6 7 10 15 10 8 0 15 -4 15 -10z m80 -25 c10 -13
9 -15 -8 -15 -22 0 -36 13 -25 24 10 10 20 7 33 -9z m173 -1 c15 -4 27 -13 27
-20 0 -17 0 -17 -56 -3 -27 7 -44 17 -44 26 0 11 6 14 23 9 12 -4 34 -9 50
-12z m-383 -9 c10 -13 9 -15 -9 -15 -12 0 -21 6 -21 15 0 8 4 15 9 15 5 0 14
-7 21 -15z m-610 1 c0 -2 -8 -10 -17 -17 -16 -13 -17 -12 -4 4 13 16 21 21 21
13z m1104 -26 c45 -14 66 -26 66 -36 0 -10 -6 -14 -15 -10 -9 3 -40 13 -70 22
-34 9 -55 21 -55 30 0 17 -5 18 74 -6z m-405 -4 c9 -10 9 -16 1 -21 -13 -8
-42 14 -34 26 8 13 20 11 33 -5z m-883 -30 c2 -14 0 -15 -12 -5 -17 14 -19 32
-2 27 6 -2 12 -12 14 -22z m1201 2 c42 -13 73 -27 73 -35 0 -17 -2 -17 -89 10
-41 12 -76 28 -79 35 -5 17 11 15 95 -10z m-229 -6 c3 -9 -2 -13 -14 -10 -9 1
-19 9 -22 16 -3 9 2 13 14 10 9 -1 19 -9 22 -16z m465 -8 c26 -9 47 -21 47
-26 0 -17 -72 -1 -94 22 -25 24 -15 25 47 4z m702 -14 c10 -11 16 -20 13 -20
-3 0 -13 9 -23 20 -10 11 -16 20 -13 20 3 0 13 -9 23 -20z m-952 -26 c56 -17
70 -30 44 -39 -22 -9 -122 31 -126 50 -2 12 2 16 10 13 8 -3 40 -14 72 -24z
m206 -3 c23 -9 41 -20 40 -26 -2 -5 -6 -9 -9 -9 -98 23 -138 38 -133 50 6 15
29 12 102 -15z m-1233 10 c-3 -5 2 -8 11 -7 9 0 18 -5 20 -11 3 -8 -5 -13 -21
-13 -19 0 -26 5 -26 20 0 11 5 20 11 20 5 0 8 -4 5 -9z m-149 -27 c0 -7 -4
-11 -8 -9 -4 3 -10 -6 -13 -20 -4 -14 -11 -25 -16 -25 -5 0 -3 12 5 27 8 15
12 30 10 33 -2 4 2 7 9 7 7 0 13 -6 13 -13z m1463 -63 c140 -41 165 -51 168
-68 3 -20 -2 -20 -120 17 -68 21 -156 47 -195 59 -50 15 -73 27 -73 37 0 19 3
19 220 -45z m-925 39 c13 -5 14 -9 5 -9 -8 0 -24 4 -35 9 -13 5 -14 9 -5 9 8
0 24 -4 35 -9z m-532 -13 c3 -8 -1 -14 -8 -14 -7 0 -11 6 -8 14 3 7 6 13 8 13
2 0 5 -6 8 -13z m587 -7 c0 -5 -7 -7 -15 -4 -8 4 -15 8 -15 10 0 2 7 4 15 4 8
0 15 -4 15 -10z m-735 -39 c3 -5 2 -12 -3 -15 -5 -3 -9 1 -9 9 0 17 3 19 12 6z
m140 -57 c51 -9 36 -17 -19 -9 -25 4 -46 12 -46 17 0 6 6 8 14 5 8 -3 31 -9
51 -13z m160 -9 c6 0 11 -11 12 -25 1 -17 0 -19 -4 -6 -4 15 -7 16 -14 5 -7
-12 -9 -12 -9 1 0 13 -1 13 -10 0 -8 -12 -10 -10 -11 10 0 23 -1 23 -9 5 -8
-18 -9 -17 -9 8 -1 26 1 27 22 15 12 -7 27 -12 32 -13z m4318 18 c-13 -2 -35
-2 -50 0 -16 2 -5 4 22 4 28 0 40 -2 28 -4z m115 0 c-10 -2 -28 -2 -40 0 -13
2 -5 4 17 4 22 1 32 -1 23 -4z m-218 -13 c-34 -11 -60 -11 -35 0 11 5 29 8 40
8 16 0 15 -2 -5 -8z m277 4 c-3 -3 -12 -4 -19 -1 -8 3 -5 6 6 6 11 1 17 -2 13
-5z m98 -25 c79 -30 64 -32 -20 -3 -38 13 -62 24 -53 24 10 0 42 -9 73 -21z
m-4318 -96 c-2 -21 -4 -6 -4 32 0 39 2 55 4 38 2 -18 2 -50 0 -70z m3862 93
c-2 -2 -15 -9 -29 -15 -24 -11 -24 -11 -6 3 16 13 49 24 35 12z m-643 -27
c-19 -15 -26 -31 -28 -57 l-1 -37 -4 34 c-3 24 1 39 18 57 12 13 27 24 32 24
5 0 -2 -9 -17 -21z m564 -20 c-14 -11 -60 -54 -102 -96 l-77 -77 20 -33 c11
-18 23 -56 26 -86 5 -47 2 -56 -22 -85 -22 -27 -34 -32 -69 -32 -46 0 -79 26
-109 85 -34 70 -28 153 13 175 27 15 77 12 110 -5 29 -15 29 -15 72 36 41 50
143 139 156 139 4 -1 -4 -10 -18 -21z m-4210 -36 c0 -7 -7 -13 -15 -13 -8 0
-15 8 -15 18 0 14 -2 15 -10 2 -8 -12 -10 -12 -11 5 0 11 -3 14 -6 8 -8 -21
-22 -15 -16 6 5 19 7 19 39 4 19 -9 34 -23 34 -30z m1168 29 c2 -7 -2 -10 -12
-6 -9 3 -16 11 -16 16 0 13 23 5 28 -10z m3722 -18 c0 -2 -13 2 -30 11 -16 9
-30 18 -30 21 0 2 14 -2 30 -11 17 -9 30 -18 30 -21z m-4098 -934 l-2 -940 47
-23 c27 -13 134 -59 240 -103 106 -43 191 -80 189 -81 -7 -7 -393 152 -447
183 l-34 20 -5 870 c-5 876 -4 1014 8 1014 4 0 6 -423 4 -940z m477 911 c-3
-6 -10 -7 -18 -2 -7 5 -10 14 -6 21 9 14 29 -2 24 -19z m4961 -10 c50 -26 80
-74 80 -128 0 -143 -141 -170 -201 -39 -57 126 14 225 121 167z m-1160 -111
c42 -41 86 -91 99 -110 17 -26 14 -24 -15 10 -48 57 -115 124 -179 179 -33 29
-38 35 -15 20 19 -13 69 -57 110 -99z m-2915 86 l22 -23 -26 -44 c-21 -35 -26
-40 -29 -24 -2 11 -11 35 -19 53 -15 31 -14 34 3 47 25 19 23 19 49 -9z
m-1145 -7 c0 -4 -7 -6 -15 -3 -8 4 -15 10 -15 15 0 4 7 6 15 3 8 -4 15 -10 15
-15z m3271 -46 c13 -16 12 -17 -3 -4 -10 7 -18 15 -18 17 0 8 8 3 21 -13z
m-4821 -68 c-9 -11 -16 -12 -25 -5 -6 5 -15 7 -18 3 -4 -3 -7 -1 -7 5 0 19 20
24 26 7 9 -23 25 3 19 30 -4 17 -3 17 6 -2 9 -17 9 -26 -1 -38z m4157 -172
c-1 -43 -3 -8 -3 77 0 85 2 120 3 78 2 -43 2 -113 0 -155z m-3077 175 c0 -13
-5 -9 -31 19 l-24 26 27 -19 c15 -10 28 -22 28 -26z m350 28 c0 -3 -4 -8 -10
-11 -5 -3 -10 -1 -10 4 0 6 5 11 10 11 6 0 10 -2 10 -4z m-1391 -49 c0 -8 -2
-8 -6 1 -4 10 -8 10 -21 0 -15 -12 -16 -11 -3 4 14 19 32 15 30 -5z m-53 -16
c18 -11 44 -35 59 -55 24 -31 26 -38 14 -54 -12 -15 -12 -16 2 -4 21 16 36 -1
45 -49 4 -19 11 -42 16 -53 8 -14 7 -17 -3 -11 -8 6 -10 4 -3 -6 15 -24 13
-39 -4 -39 -15 0 -15 -2 -2 -10 13 -8 12 -10 -2 -10 -11 0 -18 7 -18 18 0 40
-43 143 -67 162 -68 54 -141 43 -157 -23 -9 -36 -12 -38 -40 -33 -16 4 -31 8
-33 10 -2 2 2 26 8 55 15 72 62 121 115 121 22 0 53 -9 70 -19z m6719 -93 c3
-3 4 -57 3 -120 l-3 -115 -94 29 -94 29 7 56 c7 61 27 106 53 123 17 10 118 9
128 -2z m-5126 -24 l58 -16 6 -421 c8 -460 9 -1047 3 -1047 -2 0 -20 7 -40 15
l-36 15 0 715 0 714 -30 16 c-27 14 -38 25 -25 25 3 0 32 -7 64 -16z m-1571
-19 c34 -28 72 -99 72 -133 0 -31 -28 -28 -41 6 -25 59 -35 75 -56 85 -28 13
-53 -6 -53 -39 0 -25 -7 -28 -34 -18 -23 9 -20 66 5 98 27 34 68 34 107 1z
m6844 -10 c22 -15 46 -45 62 -77 26 -55 45 -162 30 -170 -5 -3 -51 8 -101 24
l-93 29 0 103 c0 56 3 106 7 109 14 15 60 6 95 -18z m-6355 -6 c34 -12 103
-78 103 -97 0 -7 4 -11 9 -8 14 9 20 -16 9 -36 -5 -11 -5 -18 1 -18 5 0 12 6
14 13 4 9 6 9 6 -1 1 -8 -8 -16 -20 -19 -16 -4 -17 -8 -7 -14 10 -7 10 -9 0
-9 -7 0 -16 8 -19 17 -16 41 -94 92 -141 93 -34 0 -82 -38 -82 -66 0 -20 -16
-25 -44 -14 -23 8 -25 14 -20 37 26 108 102 156 191 122z m5293 -9 c6 -11 8
-20 6 -20 -3 0 -10 9 -16 20 -6 11 -8 20 -6 20 3 0 10 -9 16 -20z m-455 -397
c0 -193 -3 -354 -6 -357 -3 -3 -22 -1 -42 5 l-37 10 0 359 0 359 43 -13 42
-12 0 -351z m-853 247 c1 -115 -1 -162 -7 -168 -2 -2 -18 4 -35 13 -18 9 -29
12 -25 6 3 -6 21 -17 39 -25 l32 -13 -4 -69 c-2 -38 -6 -71 -7 -72 -2 -2 -20
1 -39 8 l-36 12 0 98 0 99 -60 17 c-57 16 -60 18 -60 48 1 45 19 117 36 144
14 21 21 23 90 21 l74 -3 2 -116z m1354 69 c14 -28 24 -53 22 -55 -2 -2 -16
21 -31 51 -15 30 -25 55 -22 55 3 0 16 -23 31 -51z m-5831 6 c0 -28 -29 -25
-33 3 -3 19 0 23 15 20 10 -2 18 -12 18 -23z m4601 -4 c61 -28 92 -75 109
-166 8 -42 15 -87 15 -100 0 -24 0 -24 -47 -9 -27 8 -55 19 -64 24 -9 5 -35
14 -59 20 -42 11 -42 12 -36 48 3 20 6 74 6 120 0 93 3 96 76 63z m-2858 -10
c12 -11 22 -28 22 -38 0 -10 20 -40 45 -67 25 -27 45 -55 45 -61 0 -6 14 -24
31 -41 17 -16 38 -42 46 -58 20 -39 111 -134 143 -151 14 -7 49 -18 79 -24 47
-10 65 -21 130 -84 42 -39 112 -103 156 -142 44 -38 124 -109 177 -158 109
-99 102 -97 198 -45 148 82 269 163 272 183 4 30 44 32 54 3 8 -28 18 -35 116
-94 53 -31 84 -44 97 -39 24 7 78 -24 61 -35 -16 -10 86 -84 105 -77 8 4 12 1
9 -6 -4 -12 66 -72 116 -97 24 -13 29 -9 148 116 140 147 231 274 239 334 8
55 25 68 58 42 14 -11 21 -22 16 -24 -10 -4 -171 -243 -171 -255 0 -4 -18 -19
-39 -33 -22 -13 -79 -70 -127 -127 -48 -57 -92 -103 -99 -103 -6 0 -63 39
-126 86 -63 48 -133 95 -156 106 -24 10 -43 23 -43 27 0 4 -12 13 -27 20 -15
7 -65 37 -110 67 -46 30 -88 54 -92 54 -5 0 -64 -36 -130 -80 -123 -81 -249
-150 -275 -150 -7 0 -30 20 -50 44 -59 73 -433 399 -484 423 -26 12 -66 25
-90 29 -39 6 -50 15 -119 98 -42 50 -77 92 -78 93 0 1 -13 4 -28 7 -17 3 -27
0 -27 -7 0 -17 104 -229 146 -299 45 -73 91 -100 167 -96 50 3 52 2 55 -23 4
-37 130 -170 261 -277 58 -47 156 -127 216 -178 61 -50 124 -95 140 -101 22
-7 31 -17 33 -36 4 -37 -17 -35 -54 4 -16 17 -121 106 -234 197 -194 157 -290
246 -347 319 -43 55 -87 76 -142 69 l-49 -6 -58 100 c-33 55 -62 100 -66 100
-5 0 -8 -216 -8 -479 l0 -480 -37 13 -38 13 -3 497 -2 498 30 -7 c16 -4 30 -4
30 -1 0 4 -23 56 -52 117 -51 109 -51 110 -35 144 16 33 16 34 -17 75 -18 22
-47 50 -65 61 -32 19 -33 21 -16 40 22 23 24 23 53 0z m1562 -26 c19 -7 28
-13 20 -13 -8 0 -31 6 -50 13 -19 7 -28 13 -20 13 8 0 31 -6 50 -13z m-2782
-30 c35 -29 62 -82 62 -120 0 -42 -30 -27 -49 25 -28 75 -94 87 -108 19 -7
-36 -17 -43 -33 -24 -15 18 -7 68 15 102 21 32 74 31 113 -2z m2897 -5 c28
-10 43 -18 35 -18 -8 0 -37 8 -65 18 -27 10 -43 18 -35 18 8 0 38 -8 65 -18z
m-2378 -6 c39 -19 88 -74 108 -121 13 -30 12 -33 -7 -39 -15 -4 -31 4 -62 35
-67 65 -147 66 -184 1 -17 -30 -44 -38 -70 -21 -22 13 4 89 43 128 29 29 39
33 85 33 29 0 68 -7 87 -16z m-1224 -22 c4 -1 7 -6 7 -11 0 -7 -17 -8 -37 -2
-10 3 -18 0 -18 -8 0 -5 -3 -13 -7 -17 -5 -4 -8 -1 -8 7 0 11 -2 11 -10 -1 -5
-8 -10 -19 -10 -25 0 -5 5 -3 10 5 8 13 10 13 10 1 0 -11 3 -10 13 3 13 17 14
18 20 2 4 -10 3 -14 -2 -11 -6 3 -14 -3 -20 -12 -6 -11 -11 -13 -11 -5 0 7 -5
10 -10 7 -6 -4 -8 -10 -5 -15 3 -4 -3 -14 -13 -21 -15 -13 -16 -12 -4 3 8 9 9
19 4 22 -10 6 -27 -22 -23 -38 1 -5 -5 -4 -13 3 -13 11 -13 17 -4 35 7 11 12
24 13 28 0 3 4 10 9 15 5 5 7 -1 3 -15 -3 -12 -1 -20 4 -16 5 3 9 10 9 15 0 6
8 21 17 33 16 20 38 25 76 18z m110 -16 c3 -7 36 -25 74 -40 77 -29 133 -61
133 -75 0 -17 -51 -50 -87 -57 -73 -14 -169 38 -235 127 -22 30 -34 48 -27 42
19 -19 105 -17 113 2 7 19 22 19 29 1z m5015 -11 c22 -6 22 -7 22 -222 0 -118
-3 -213 -7 -211 -5 2 -26 10 -47 18 l-39 15 6 175 c4 96 7 190 7 208 0 27 3
32 18 28 9 -2 27 -7 40 -11z m-4428 -41 c0 -8 -9 -14 -20 -14 -19 0 -28 28
-13 43 9 9 33 -12 33 -29z m4678 20 c9 -2 12 -62 12 -253 l0 -250 -45 16 -46
15 3 167 c1 91 4 201 6 243 l4 78 26 -6 c15 -3 33 -7 40 -10z m236 -15 l39
-11 -6 -186 c-4 -103 -7 -226 -7 -273 l0 -87 -40 10 -40 10 0 274 c0 151 3
274 8 274 4 0 25 -5 46 -11z m-5073 -26 c4 -5 10 -18 14 -31 6 -22 5 -23 -37
-20 -42 3 -43 4 -46 40 l-3 37 32 -9 c18 -5 36 -13 40 -17z m3404 7 c33 -11
44 -17 25 -13 -38 6 -111 31 -95 32 6 0 37 -8 70 -19z m-2740 -20 c35 -13 74
-57 96 -108 25 -57 24 -74 -2 -70 -14 2 -25 16 -34 41 -7 21 -21 47 -31 58
-34 37 -94 14 -94 -37 0 -27 -8 -30 -34 -11 -16 11 -16 18 -7 54 7 24 23 51
38 62 30 24 33 24 68 11z m-1510 -29 c3 -5 2 -12 -3 -15 -5 -3 -9 1 -9 9 0 17
3 19 12 6z m4450 -11 c28 -10 43 -18 35 -18 -8 0 -37 8 -65 18 -27 10 -43 18
-35 18 8 0 38 -8 65 -18z m629 -30 c9 -9 15 -170 6 -170 -3 0 -22 5 -42 11
l-38 10 0 85 0 86 33 -7 c17 -4 36 -11 41 -15z m-4664 -20 c46 -23 73 -30 120
-30 56 0 60 -2 60 -23 0 -44 -31 -126 -53 -142 -30 -21 -80 -19 -111 6 -36 28
-76 110 -83 170 -3 27 -3 49 1 49 4 0 33 -13 66 -30z m597 -26 c15 -4 39 -15
52 -26 13 -10 30 -18 37 -18 7 0 25 -5 40 -10 l27 -11 -28 -29 c-36 -38 -85
-54 -146 -48 -57 6 -101 34 -146 92 -54 70 -53 76 6 76 39 0 51 4 51 15 0 12
8 10 39 -9 22 -14 52 -28 68 -32z m4203 -81 c0 -83 0 -84 -22 -77 -71 22 -68
16 -68 108 l0 85 45 -16 45 -15 0 -85z m329 111 l32 -7 -2 -159 c-2 -141 -4
-158 -18 -153 -9 4 -28 9 -43 12 l-28 6 0 153 c0 167 -3 160 59 148z m-4019
-29 c7 -8 10 -21 6 -30 -8 -22 -36 -6 -36 21 0 27 12 31 30 9z m-197 -11 c45
-15 47 -17 47 -56 0 -39 0 -40 -32 -33 -18 4 -38 12 -44 19 -11 10 -29 86 -21
86 2 0 24 -7 50 -16z m3382 6 c13 -5 14 -9 5 -9 -8 0 -24 4 -35 9 -13 5 -14 9
-5 9 8 0 24 -4 35 -9z m600 -10 c25 -10 26 -12 23 -86 -3 -95 -6 -100 -52 -84
l-36 12 0 84 c0 92 4 97 65 74z m1112 -12 c-3 -8 -6 -5 -6 6 -1 11 2 17 5 13
3 -3 4 -12 1 -19z m-4715 -4 l46 -15 4 -70 3 -70 -34 6 c-76 14 -81 20 -81 79
0 30 -3 61 -6 70 -8 20 9 20 68 0z m3055 10 c-3 -3 -12 -4 -19 -1 -8 3 -5 6 6
6 11 1 17 -2 13 -5z m-4726 -47 c-10 -9 -11 -8 -5 6 3 10 9 15 12 12 3 -3 0
-11 -7 -18z m6396 -140 c-2 -23 -3 -1 -3 48 0 50 1 68 3 42 2 -26 2 -67 0 -90z
m-4907 39 c120 -44 140 -55 140 -76 0 -29 -33 -58 -75 -66 -90 -17 -193 31
-246 113 l-30 48 46 3 c33 2 48 8 56 23 10 20 10 20 27 -1 9 -11 46 -31 82
-44z m-608 17 c35 -23 55 -29 120 -32 88 -4 89 -5 67 -86 -16 -59 -44 -85 -92
-85 -75 0 -137 75 -152 183 -9 56 -2 58 57 20z m3779 10 c13 -16 12 -17 -3 -4
-10 7 -18 15 -18 17 0 8 8 3 21 -13z m-4811 -19 c0 -8 -19 -13 -24 -6 -3 5 1
9 9 9 8 0 15 -2 15 -3z m5048 -123 c2 -36 5 -74 8 -83 8 -25 -3 -22 -47 13
-41 32 -59 75 -59 141 l0 36 48 -20 48 -20 2 -67z m-5070 50 c85 -26 109 -44
121 -88 6 -20 8 -39 6 -42 -3 -2 -8 10 -11 27 -9 47 -37 69 -114 92 -38 11
-70 23 -70 25 0 7 -3 7 68 -14z m-179 -27 c72 -65 103 -171 81 -277 -21 -103
-88 -138 -148 -78 -86 87 -117 288 -55 362 35 41 72 39 122 -7z m931 1 c19
-10 52 -31 73 -47 41 -33 100 -112 90 -122 -4 -3 -2 -6 4 -6 5 0 10 -7 10 -15
0 -8 -5 -15 -11 -15 -6 0 -4 -5 4 -10 13 -9 13 -10 0 -10 -9 -1 -6 -6 10 -16
24 -15 23 -15 -25 -8 -27 4 -75 8 -105 10 -30 1 -57 3 -60 4 -3 1 -13 2 -22 1
-10 -1 -18 1 -18 6 0 4 -14 9 -31 9 -17 1 -34 5 -38 10 -3 5 -17 10 -31 12
-14 1 -26 7 -28 12 -2 5 -10 6 -19 3 -12 -5 -14 -3 -8 7 6 10 4 11 -6 4 -21
-13 -91 -12 -96 2 -7 18 -31 25 -39 12 -4 -6 -3 -8 4 -4 6 3 13 2 17 -3 7 -13
-33 -5 -51 9 -7 7 -18 9 -23 6 -6 -4 -15 3 -21 14 -6 11 -16 20 -23 19 -9 0
-9 -2 1 -6 23 -9 12 -21 -17 -19 -17 1 -27 -2 -24 -7 3 -5 -3 -7 -12 -5 -10 1
-20 8 -22 13 -7 22 16 35 73 41 32 3 65 7 72 10 8 2 10 -1 6 -8 -4 -7 -3 -8 5
-4 6 4 18 21 26 37 9 16 33 42 55 58 38 27 43 28 142 26 76 -1 112 -6 138 -20z
m5807 -57 c-3 -7 -5 -2 -5 12 0 14 2 19 5 13 2 -7 2 -19 0 -25z m-4974 -5 c39
-19 72 -27 129 -31 l78 -5 -6 -41 c-4 -22 -13 -54 -22 -71 -26 -54 -42 -65
-90 -65 -41 0 -50 5 -88 45 -46 48 -78 129 -68 171 3 13 8 24 10 24 3 0 28
-12 57 -27z m770 7 c39 -1 40 -5 44 -399 3 -210 2 -381 -1 -381 -3 0 -24 7
-46 16 l-40 16 0 380 c0 343 2 380 16 374 9 -3 21 -6 27 -6z m-2709 -56 c-1
-30 -5 -58 -8 -61 -3 -3 -1 -14 4 -23 7 -13 5 -21 -5 -30 -8 -7 -16 -10 -16
-6 -1 3 -2 12 -3 19 -1 6 -7 11 -14 10 -7 -2 -11 0 -11 5 1 4 1 16 0 27 -1 15
-3 17 -10 7 -4 -8 -7 -24 -5 -38 1 -13 -2 -22 -6 -19 -5 3 -6 13 -3 22 5 12 3
14 -7 8 -8 -5 -11 -4 -7 1 3 6 1 16 -4 24 -8 11 -9 6 -6 -18 2 -18 0 -35 -5
-38 -5 -3 -8 -2 -7 3 1 4 0 19 -1 33 -2 24 -3 24 -10 -5 -7 -27 -8 -26 -7 12
2 30 5 39 14 32 14 -12 27 5 18 24 -4 6 0 4 8 -6 14 -17 16 -16 28 18 8 22 18
34 26 30 8 -2 16 2 19 10 12 31 20 13 18 -41z m5221 40 c34 -23 31 -34 -9 -34
-37 0 -51 12 -42 35 7 19 21 19 51 -1z m1682 -36 c-3 -8 -6 -5 -6 6 -1 11 2
17 5 13 3 -3 4 -12 1 -19z m-7169 -14 c-1 -5 -9 -9 -16 -10 -10 -2 -11 1 -1
12 12 14 24 13 17 -2z m5396 0 c10 -25 -12 -54 -39 -52 -14 1 -25 3 -25 4 0 0
5 15 11 33 12 33 42 43 53 15z m1763 -26 c-3 -8 -6 -5 -6 6 -1 11 2 17 5 13 3
-3 4 -12 1 -19z m-1281 -43 c-1 -44 -16 -46 -17 -2 l-1 32 -8 -30 -8 -30 -1
33 c-1 25 3 32 18 32 15 0 18 -7 17 -35z m-6059 -10 c-15 -14 -23 -20 -18 -14
5 6 7 19 4 28 -4 12 -3 13 5 3 7 -11 11 -10 16 4 3 9 10 14 13 10 4 -4 -5 -18
-20 -31z m2061 15 c-7 -10 -14 -17 -17 -15 -4 4 18 35 25 35 2 0 -1 -9 -8 -20z
m4039 -21 c-2 -33 -27 -22 -27 12 0 26 2 29 14 20 8 -7 14 -21 13 -32z m-3976
14 c13 -16 12 -17 -3 -4 -17 13 -22 21 -14 21 2 0 10 -8 17 -17z m3345 -36
c-20 -24 -36 -51 -36 -60 0 -20 -14 -29 -34 -21 -22 8 -20 41 2 48 11 4 36 24
58 45 50 51 56 44 10 -12z m372 18 l43 -18 -5 -216 c-3 -119 -7 -436 -8 -706
-1 -269 -4 -545 -6 -612 l-3 -122 -47 18 -47 19 0 473 c-1 822 5 1191 18 1186
7 -3 31 -13 55 -22z m1473 -12 c-12 -20 -14 -14 -5 12 4 9 9 14 11 11 3 -2 0
-13 -6 -23z m-6951 -7 c0 -2 -8 -10 -17 -17 -16 -13 -17 -12 -4 4 13 16 21 21
21 13z m1708 -51 c4 -6 -1 -2 -10 8 -10 11 -18 27 -17 36 0 10 4 7 10 -8 5
-14 13 -30 17 -36z m-4098 30 c-5 -7 -8 -14 -5 -17 3 -2 -1 -5 -9 -5 -7 0 -12
7 -11 16 4 19 2 18 20 18 10 0 12 -4 5 -12z m2221 -17 c12 -7 11 -9 -1 -7 -30
3 -41 -1 -34 -13 4 -7 3 -10 -1 -5 -5 4 -17 -1 -28 -10 -19 -18 -19 -17 -6 5
8 12 22 25 31 28 11 3 15 11 12 22 -5 13 -4 14 4 3 5 -7 16 -18 23 -23z m1909
12 c6 -11 8 -20 6 -20 -3 0 -10 9 -16 20 -6 11 -8 20 -6 20 3 0 10 -9 16 -20z
m-3863 -12 c-3 -8 -6 -5 -6 6 -1 11 2 17 5 13 3 -3 4 -12 1 -19z m333 0 c0 -4
-5 -8 -11 -8 -5 0 -7 -6 -3 -12 5 -9 3 -9 -9 1 -9 7 -15 17 -12 20 6 10 35 10
35 -1z m651 -9 c7 -11 9 -11 9 -1 0 7 5 10 10 7 18 -11 11 -24 -11 -20 -16 3
-19 0 -15 -13 4 -10 -2 -6 -14 8 -11 14 -20 28 -20 32 0 12 31 2 41 -13z
m-101 -18 c-5 -10 -6 -22 -2 -27 4 -5 -2 -2 -12 6 -18 14 -19 13 -13 -2 10
-28 -1 -21 -18 11 -14 28 -14 30 5 26 11 -2 22 1 25 6 11 18 25 -1 15 -20z
m8161 6 c-10 -9 -11 -8 -5 6 3 10 9 15 12 12 3 -3 0 -11 -7 -18z m-8653 -11
c-1 -14 -5 -23 -9 -20 -7 4 0 44 7 44 2 0 3 -11 2 -24z m131 12 c3 5 15 -2 25
-17 20 -26 20 -26 0 -9 -13 12 -24 14 -30 8 -6 -6 -10 -2 -11 13 0 12 1 16 4
8 3 -8 8 -9 12 -3z m730 -46 c0 -14 -2 -13 -9 3 -5 12 -9 14 -9 6 -1 -8 -4
-12 -7 -8 -9 9 6 28 17 22 5 -4 9 -14 8 -23z m58 0 c-1 -15 -5 -17 -24 -8 -19
10 -20 12 -5 18 27 11 31 9 29 -10z m6755 -130 c31 -20 57 -41 57 -45 1 -15
-144 92 -189 139 l-45 48 60 -53 c33 -29 86 -69 117 -89z m-6264 115 c-1 -2 4
-12 12 -23 10 -14 10 -16 0 -7 -9 8 -18 9 -25 3 -8 -7 -12 -5 -12 5 0 7 5 13
11 12 6 -1 10 5 8 13 -2 8 -1 12 3 8 4 -3 5 -8 3 -11z m2106 -44 c37 -55 53
-63 65 -31 6 12 10 19 10 13 1 -14 -28 -92 -30 -82 -1 4 -2 10 -3 15 -1 4 -15
27 -32 52 -33 48 -62 100 -49 88 4 -4 22 -29 39 -55z m343 31 c-9 -9 -28 6
-21 18 4 6 10 6 17 -1 6 -6 8 -13 4 -17z m2148 2 l35 -15 0 -520 c0 -287 -2
-521 -5 -521 -2 0 -23 7 -45 16 l-40 16 0 519 c0 350 3 519 10 519 6 0 26 -7
45 -14z m2594 -18 c-20 -39 -142 -152 -189 -176 -25 -12 -37 -17 -26 -10 93
64 143 106 179 153 46 60 54 67 36 33z m-5021 -13 c-3 -3 -9 2 -12 12 -6 14
-5 15 5 6 7 -7 10 -15 7 -18z m-893 -102 c14 -22 7 -18 -31 17 -28 25 -63 55
-79 68 -17 12 -3 5 31 -17 33 -22 69 -52 79 -68z m-755 77 c15 -8 18 -32 22
-192 3 -101 5 -184 3 -186 -1 -1 -46 18 -100 43 l-98 45 5 108 c4 83 9 116 26
149 12 22 27 44 34 47 17 7 85 -2 108 -14z m-727 -5 c-3 -9 -8 -14 -10 -11 -3
3 -2 9 2 15 9 16 15 13 8 -4z m4545 -72 l3 -60 -31 5 c-30 4 -30 5 -30 67 l0
63 28 -7 c25 -7 27 -11 30 -68z m-3676 21 c69 -48 117 -190 118 -346 0 -43 -2
-78 -4 -78 -3 0 -47 20 -99 44 l-94 43 -6 93 c-9 120 -9 255 0 263 13 14 48 6
85 -19z m2717 -5 l31 -11 0 -223 0 -224 -37 13 -38 13 -3 222 c-1 121 2 221 6
221 5 0 23 -5 41 -11z m521 -47 l35 -17 3 -303 c1 -166 -1 -302 -5 -302 -5 1
-24 9 -43 18 l-35 17 -3 303 c-1 166 1 302 5 302 5 -1 24 -9 43 -18z m-221
-278 c2 -258 4 -251 -59 -219 l-30 16 0 238 0 239 44 -20 43 -21 2 -233z
m2696 258 c-3 -3 -11 0 -18 7 -9 10 -8 11 6 5 10 -3 15 -9 12 -12z m-2867 -8
l31 -6 3 -214 c2 -118 -1 -214 -5 -214 -4 0 -23 7 -42 14 l-35 15 0 159 c0 88
-3 180 -6 206 -7 50 -5 52 54 40z m2439 -14 l49 -11 -3 -152 c-1 -84 -4 -389
-6 -680 -2 -290 -6 -530 -9 -533 -3 -2 -27 4 -54 14 l-48 19 2 344 c2 398 13
1009 18 1009 2 0 25 -5 51 -10z m370 -22 c-3 -7 -5 -2 -5 12 0 14 2 19 5 13 2
-7 2 -19 0 -25z m123 22 c8 -5 11 -10 5 -10 -5 0 -17 5 -25 10 -8 5 -10 10 -5
10 6 0 17 -5 25 -10z m115 -40 c13 -5 14 -9 5 -9 -8 0 -24 4 -35 9 -13 5 -14
9 -5 9 8 0 24 -4 35 -9z m320 -5 c-16 -8 -37 -14 -45 -14 -8 0 1 7 20 14 46
18 64 17 25 0z m-262 -12 c-7 -2 -19 -2 -25 0 -7 3 -2 5 12 5 14 0 19 -2 13
-5z m-5397 -33 c1 -21 -3 -30 -15 -30 -14 -1 -14 -2 2 -11 11 -7 17 -22 17
-49 0 -22 -2 -40 -4 -40 -2 0 -25 9 -50 20 l-46 19 1 53 c1 29 4 56 6 61 2 4
23 7 46 7 40 0 42 -2 43 -30z m177 0 l67 -21 0 -126 0 -125 -34 6 c-19 4 -57
13 -85 22 l-51 15 0 130 c0 120 1 130 18 125 9 -3 47 -15 85 -26z m3070 13
l27 -5 0 -359 0 -358 -45 17 -45 16 0 354 c0 333 1 354 18 347 9 -3 29 -9 45
-12z m2225 10 c-10 -2 -28 -2 -40 0 -13 2 -5 4 17 4 22 1 32 -1 23 -4z m110 0
c-10 -2 -28 -2 -40 0 -13 2 -5 4 17 4 22 1 32 -1 23 -4z m1359 -59 c20 -5 63
-59 63 -78 0 -4 -13 0 -30 9 -16 8 -50 18 -75 22 -50 6 -52 9 -28 35 17 19 33
22 70 12z m-6474 -25 l72 -21 -3 -79 c-3 -60 -7 -79 -18 -79 -8 0 -14 5 -14
10 0 6 5 10 10 10 6 0 10 5 10 11 0 5 -4 8 -8 5 -5 -3 -9 1 -9 9 0 8 4 12 9 9
4 -3 8 5 8 18 0 18 -2 20 -10 8 -7 -12 -9 -10 -7 7 0 12 5 19 9 17 4 -3 8 2 8
11 0 9 -4 14 -9 10 -5 -3 -12 -1 -15 4 -4 5 -1 13 5 17 8 5 9 3 4 -6 -6 -9 -4
-11 4 -5 9 5 10 10 2 18 -7 7 -15 6 -25 -2 -12 -10 -16 -9 -25 6 -9 16 -10 16
-11 1 0 -9 4 -19 10 -23 16 -10 1 -31 -23 -32 -12 0 -17 1 -10 4 7 2 11 10 9
16 -1 7 -1 9 1 5 3 -5 10 -8 16 -8 8 0 7 4 -1 12 -17 17 -42 19 -35 3 2 -8 -1
-22 -7 -32 -10 -16 -11 -15 -6 6 3 17 2 21 -6 13 -18 -18 -2 -40 26 -37 14 2
24 -1 20 -6 -3 -5 -9 -7 -14 -4 -12 8 -41 -6 -34 -16 3 -5 10 -9 15 -9 6 0 7
4 4 10 -4 6 1 7 11 3 11 -4 13 -8 6 -11 -7 -2 -10 -8 -6 -13 7 -12 -13 -11
-37 1 -16 9 -19 22 -19 85 0 47 4 75 11 75 6 0 43 -9 82 -21z m3835 -315 c2
-159 0 -389 -3 -510 l-7 -221 -47 17 -46 18 -3 98 c-2 55 0 284 3 511 l7 412
47 -18 46 -19 3 -288z m-1478 256 l40 -20 0 -200 c0 -110 -4 -200 -9 -200 -5
0 -25 7 -45 15 l-36 15 0 205 c0 113 2 205 5 205 3 0 24 -9 45 -20z m-232
-168 l3 -151 -46 17 -45 16 0 148 0 147 43 -13 42 -12 3 -152z m1260 148 c5 0
2 -790 -4 -790 -4 0 -28 8 -55 17 l-49 18 0 100 c0 55 3 231 7 392 l6 291 46
-14 c25 -8 47 -14 49 -14z m259 10 l42 -10 -4 -278 c-2 -152 -4 -357 -4 -454
l-1 -178 -47 19 -48 19 -3 451 c-2 359 0 450 10 446 7 -2 32 -9 55 -15z m2865
-17 c32 -14 59 -33 62 -42 3 -9 8 -50 11 -91 4 -41 16 -97 27 -123 12 -26 18
-50 15 -53 -3 -3 -56 11 -118 30 -63 19 -143 43 -178 53 -73 21 -84 39 -46 77
14 14 27 45 34 82 21 104 24 108 84 100 29 -4 78 -19 109 -33z m-6491 4 c-10
-9 -11 -8 -5 6 3 10 9 15 12 12 3 -3 0 -11 -7 -18z m-473 -47 c1 0 2 -31 2
-70 0 -38 -3 -70 -6 -70 -3 0 -28 10 -55 21 l-49 21 0 69 0 69 53 -20 c28 -11
53 -20 55 -20z m459 15 c0 -8 -4 -15 -9 -15 -10 0 -11 14 -1 23 9 10 10 9 10
-8z m137 -3 c4 -11 18 -25 31 -32 17 -9 22 -17 15 -24 -11 -11 -70 39 -70 61
0 20 18 16 24 -5z m2955 -325 c2 -260 0 -319 -11 -314 -7 2 -33 13 -57 23
l-44 17 7 105 c3 58 6 196 6 307 l0 202 48 -10 48 -10 3 -320z m-451 292 c22
-8 22 -10 22 -224 0 -118 -4 -215 -9 -215 -5 0 -25 7 -45 15 l-36 15 0 216 0
215 23 -7 c12 -4 32 -10 45 -15z m-2644 -1 c-3 -4 -9 -8 -15 -8 -5 0 -9 4 -9
8 0 5 7 9 15 9 8 0 12 -4 9 -9z m26 -3 c0 -8 -4 -15 -10 -15 -5 0 -7 7 -4 15
4 8 8 15 10 15 2 0 4 -7 4 -15z m4607 -32 c-3 -10 -5 -2 -5 17 0 19 2 27 5 18
2 -10 2 -26 0 -35z m-4566 -74 c-1 -30 -4 -55 -5 -56 -1 -1 -34 10 -74 24
l-72 26 0 57 0 57 77 -27 77 -27 -3 -54z m4639 96 c0 -8 -7 -15 -15 -15 -8 0
-15 7 -15 15 0 8 7 15 15 15 8 0 15 -7 15 -15z m-2203 -50 l36 -15 -6 -151
c-4 -84 -8 -153 -10 -155 -2 -2 -22 4 -45 13 l-42 16 0 154 c0 170 -2 167 67
138z m1436 -21 l47 -16 0 -428 0 -429 -47 16 c-27 9 -52 19 -57 24 -7 6 1 849
8 849 2 0 23 -7 49 -16z m-4231 -20 l68 -26 0 -104 c0 -57 -3 -104 -7 -104 -5
0 -41 12 -80 27 l-73 28 0 102 c0 75 3 103 12 103 7 0 43 -12 80 -26z m3526
-292 c1 -144 -1 -262 -5 -262 -4 0 -27 7 -50 16 l-43 17 0 263 0 264 48 -18
47 -18 3 -262z m-5184 257 c28 -33 32 -59 16 -90 -32 -59 -90 36 -64 105 9 23
19 20 48 -15z m3346 -29 c0 -5 -2 -10 -4 -10 -3 0 -8 5 -11 10 -3 6 -1 10 4
10 6 0 11 -4 11 -10z m-1330 -161 c0 -65 -3 -89 -12 -89 -7 0 -41 10 -75 22
l-63 23 0 97 0 97 75 -31 75 -30 0 -89z m1480 131 c8 -5 11 -10 5 -10 -5 0
-17 5 -25 10 -8 5 -10 10 -5 10 6 0 17 -5 25 -10z m50 -20 c8 -5 11 -10 5 -10
-5 0 -17 5 -25 10 -8 5 -10 10 -5 10 6 0 17 -5 25 -10z m1897 -9 l38 -10 -3
-271 c-1 -148 -4 -270 -6 -270 -2 0 -24 9 -50 21 l-47 20 1 265 c1 221 3 265
15 260 8 -3 31 -10 52 -15z m2978 -11 c20 0 15 -20 -9 -34 -14 -9 -22 -6 -42
17 -32 38 -30 51 6 32 16 -8 36 -15 45 -15z m-4825 0 c8 -5 11 -10 5 -10 -5 0
-17 5 -25 10 -8 5 -10 10 -5 10 6 0 17 -5 25 -10z m-3632 -13 c6 -7 14 -44 18
-81 l7 -68 -34 17 c-45 24 -50 33 -43 80 9 59 30 79 52 52z m3387 3 c3 -5 1
-10 -4 -10 -6 0 -11 5 -11 10 0 6 2 10 4 10 3 0 8 -4 11 -10z m305 -15 c14 -8
21 -14 15 -14 -5 0 -21 6 -35 14 -14 8 -20 14 -15 14 6 0 21 -6 35 -14z
m-3611 -49 c18 -39 27 -116 13 -116 -6 0 -23 5 -37 12 -23 10 -25 16 -25 75 0
56 2 64 17 61 10 -2 24 -16 32 -32z m3681 19 c14 -8 21 -14 15 -14 -5 0 -21 6
-35 14 -14 8 -20 14 -15 14 6 0 21 -6 35 -14z m60 -25 c8 -5 11 -10 5 -10 -5
0 -17 5 -25 10 -8 5 -10 10 -5 10 6 0 17 -5 25 -10z m95 -36 c36 -15 64 -28
62 -30 -3 -4 -128 44 -136 52 -10 9 12 3 74 -22z m-757 -13 c3 -8 -1 -12 -9
-9 -7 2 -15 10 -17 17 -3 8 1 12 9 9 7 -2 15 -10 17 -17z m-705 -18 c14 -4 25
-23 13 -23 -16 0 -66 24 -66 32 0 6 8 7 18 3 9 -4 25 -10 35 -12z m-729 -33
c45 -40 60 -87 53 -164 -5 -49 -10 -65 -32 -83 -35 -31 -52 -29 -90 11 -36 38
-55 99 -55 174 0 89 59 119 124 62z m2006 20 c0 -5 -7 -7 -15 -4 -8 4 -15 8
-15 10 0 2 7 4 15 4 8 0 15 -4 15 -10z m422 -49 c84 -33 232 -91 328 -131 96
-39 221 -89 278 -112 56 -23 100 -43 98 -45 -2 -2 -55 17 -117 42 -151 62
-419 168 -601 239 -127 50 -163 66 -144 66 3 0 73 -27 158 -59z m-1881 25 c-9
-11 -4 -15 26 -21 35 -6 36 -8 19 -20 -19 -14 -41 -7 -73 22 -17 15 -16 21 5
26 31 8 35 7 23 -7z m5596 -7 c55 -26 99 -87 113 -156 25 -117 -29 -203 -126
-203 -65 0 -119 42 -153 120 -40 94 -35 187 14 236 31 31 92 32 152 3z m-5456
-7 c-7 -2 -18 1 -23 6 -8 8 -4 9 13 5 13 -4 18 -8 10 -11z m144 -2 c4 -6 12
-10 18 -9 7 1 23 -3 37 -8 19 -8 21 -12 10 -17 -8 -3 -37 5 -65 19 -35 17 -43
24 -28 25 12 0 25 -5 28 -10z m-175 -4 c0 -11 -19 -15 -25 -6 -3 5 1 10 9 10
9 0 16 -2 16 -4z m111 -53 c5 -5 -6 -17 -24 -26 -32 -17 -35 -17 -81 3 -59 25
-55 37 5 16 60 -21 71 -19 29 4 l-35 20 49 -5 c27 -2 53 -8 57 -12z m216 0
c21 -10 40 -21 43 -24 3 -3 19 -11 35 -17 26 -9 27 -11 7 -11 -26 -1 -152 50
-152 62 0 12 27 8 67 -10z m1278 -8 c17 -7 23 -14 15 -14 -8 0 -28 6 -45 14
-16 7 -23 14 -15 14 8 0 29 -6 45 -14z m-2621 -10 c4 -11 11 -13 29 -6 26 10
53 -1 43 -17 -11 -18 -71 -48 -88 -44 -29 6 -20 19 12 19 17 0 38 7 48 16 15
16 15 17 -6 17 -12 0 -22 -3 -22 -7 0 -5 -12 -9 -27 -10 -16 0 -40 -4 -55 -8
-19 -5 -28 -3 -28 4 0 7 3 10 8 8 4 -2 23 1 42 9 19 7 29 13 22 13 -7 1 -10 6
-7 11 9 14 22 12 29 -5z m1287 -11 c90 -37 139 -63 139 -74 0 -6 -5 -10 -11
-10 -18 0 -229 94 -229 103 0 14 37 7 101 -19z m954 -4 c-3 -5 -30 -17 -60
-26 -30 -10 -55 -20 -55 -23 0 -13 145 -50 156 -40 8 7 14 7 19 0 4 -7 12 -7
25 1 10 7 16 16 14 20 -3 4 0 8 5 8 6 0 11 -10 12 -22 0 -13 3 -17 6 -10 2 6
9 12 14 12 6 0 8 -4 5 -8 -3 -5 1 -9 9 -9 8 0 12 4 9 9 -3 4 0 8 7 8 7 0 9 -9
6 -22 -5 -19 -4 -21 6 -8 16 21 48 14 41 -8 -5 -15 -4 -15 5 -2 14 20 -10 38
-61 47 -40 6 -53 23 -18 23 24 0 82 -28 92 -44 4 -6 12 -12 18 -12 5 -1 15 -2
20 -3 6 0 10 -6 10 -12 0 -6 -5 -7 -12 -2 -21 13 -35 12 -35 -3 0 -10 4 -11
13 -3 8 7 14 6 20 -2 5 -9 11 -7 21 6 7 11 13 13 13 7 0 -7 3 -11 8 -10 23 5
103 -17 118 -33 9 -10 20 -16 24 -14 5 3 6 -5 2 -17 -5 -21 -6 -21 -13 -2 -6
16 -7 14 -6 -8 1 -19 5 -24 13 -17 8 6 17 1 29 -17 16 -25 30 -25 30 -1 0 7 9
13 20 14 11 1 40 5 65 8 33 5 41 4 29 -4 -9 -6 -38 -12 -64 -13 l-47 -1 23
-19 c19 -14 20 -17 5 -11 -15 5 -18 3 -13 -10 9 -23 -8 -30 -27 -11 -9 8 -16
11 -16 5 0 -15 39 -34 56 -27 8 3 13 2 10 -3 -3 -5 34 -26 84 -47 49 -21 88
-39 86 -41 -2 -2 -34 7 -72 21 -73 27 -85 26 -79 -3 3 -15 -1 -19 -16 -16 -13
3 -19 -2 -19 -14 0 -13 17 -26 53 -41 28 -13 58 -23 65 -23 26 0 5 -29 -25
-33 -7 -1 -13 2 -13 8 0 6 -9 0 -20 -13 -12 -15 -19 -18 -18 -9 2 9 -3 13 -12
11 -8 -2 -19 -3 -25 -2 -5 0 -37 3 -70 5 -47 3 -55 1 -37 -7 12 -5 22 -13 22
-17 0 -10 -31 -36 -60 -49 l-25 -12 25 20 c32 26 21 37 -60 67 -44 16 -57 18
-49 7 11 -12 8 -13 -17 -7 -16 4 -32 11 -35 17 -4 6 -25 4 -55 -7 -61 -21 -70
-12 -13 13 40 18 42 20 16 20 -16 1 -36 5 -46 10 -10 6 -28 11 -42 13 -29 4
-49 16 -49 29 0 6 4 8 9 4 5 -3 12 -2 14 2 3 5 -21 8 -54 7 -32 -1 -56 3 -53
7 3 5 -4 9 -16 9 -25 0 -127 46 -136 62 -5 7 -2 8 6 3 10 -6 12 -4 6 11 -5 15
-4 16 5 7 6 -6 19 -9 28 -6 13 4 13 2 -2 -10 -16 -13 -16 -15 -2 -21 9 -3 13
-2 10 3 -3 5 -1 12 5 16 6 4 8 10 5 15 -8 13 -115 42 -153 42 -29 0 -31 2 -20
16 12 14 9 15 -22 9 -19 -3 -46 -9 -59 -13 -16 -5 -22 -4 -17 4 3 6 20 13 36
17 16 4 32 11 35 16 4 5 -2 6 -11 2 -12 -4 -15 -3 -10 6 5 7 2 10 -6 9 -7 -2
-12 3 -10 11 3 12 1 12 -14 0 -16 -13 -16 -12 -6 7 6 11 39 33 73 49 56 25 65
26 101 15 22 -6 47 -14 57 -16 9 -3 -3 5 -27 18 l-43 24 38 19 c29 14 132 54
191 74 2 1 1 -3 -3 -9z m-2095 -25 c12 -15 6 -35 -12 -35 -5 0 -8 7 -4 15 3
10 -1 15 -14 15 -23 0 -35 -16 -19 -26 8 -4 7 -9 -2 -15 -20 -13 -67 -11 -75
2 -5 9 4 10 31 5 34 -7 37 -6 26 7 -10 13 -8 18 11 31 28 20 42 20 58 1z
m1015 -5 c19 -8 19 -9 -2 -9 -12 -1 -25 4 -28 9 -7 12 2 12 30 0z m80 -12 c25
-11 30 -19 19 -31 -10 -9 -35 4 -28 15 4 6 -2 8 -15 3 -20 -6 -28 4 -14 18 8
9 8 9 38 -5z m1026 -12 c-8 -10 -9 -16 -1 -21 5 -3 10 -1 10 6 0 7 3 10 6 6
12 -12 -7 -28 -20 -18 -7 6 -15 9 -18 6 -3 -3 -11 1 -17 9 -11 13 -9 15 8 11
11 -2 23 0 26 6 4 5 9 9 12 9 3 0 0 -6 -6 -14z m40 -14 c0 -14 2 -13 10 3 7
17 8 17 6 2 -3 -25 -19 -23 -29 3 -5 13 -4 19 2 15 6 -3 10 -14 11 -23z m-770
-12 c28 -13 34 -18 18 -15 -15 2 -46 14 -70 25 -28 13 -34 18 -18 15 15 -2 46
-14 70 -25z m-912 16 c-10 -9 -69 -36 -69 -32 0 7 52 35 64 36 5 0 7 -2 5 -4z
m-484 -16 c-3 -5 -14 -10 -23 -10 -15 0 -15 2 -2 10 20 13 33 13 25 0z m380 0
c3 -5 1 -10 -4 -10 -6 0 -11 5 -11 10 0 6 2 10 4 10 3 0 8 -4 11 -10z m835
-10 c13 -9 13 -10 0 -9 -8 1 -26 5 -40 9 l-25 8 25 1 c14 0 32 -4 40 -9z
m-860 -15 c23 -9 28 -14 15 -14 -11 0 -33 6 -50 14 -39 17 -11 18 35 0z m6
-35 c2 0 4 -5 4 -10 0 -6 -18 -1 -40 10 -50 25 -52 35 -4 15 20 -8 38 -15 40
-15z m901 24 c-3 -3 -12 -4 -19 -1 -8 3 -5 6 6 6 11 1 17 -2 13 -5z m-827 -13
c0 -9 -23 -21 -41 -21 -4 0 -6 7 -3 15 7 16 44 21 44 6z m775 -12 c22 -10 29
-16 16 -13 -37 10 -88 33 -71 33 8 0 33 -9 55 -20z m101 7 c17 -13 17 -15 2
-21 -9 -4 -25 -2 -35 4 -11 6 -13 11 -5 11 7 0 10 5 7 10 -9 15 8 12 31 -4z
m-1159 -38 c12 -15 27 -248 17 -248 -13 0 -131 69 -143 84 -18 21 3 123 31
153 24 25 79 32 95 11z m450 6 c-3 -3 -12 -4 -19 -1 -8 3 -5 6 6 6 11 1 17 -2
13 -5z m122 -10 c13 -12 -8 -10 -29 2 l-25 15 25 -7 c14 -3 27 -8 29 -10z
m5877 -4 c8 0 14 -7 14 -16 0 -11 -5 -14 -16 -10 -9 3 -19 6 -24 6 -4 0 -6 10
-2 22 3 12 7 17 10 10 2 -6 10 -12 18 -12z m-6821 -2 c-11 -6 -24 -17 -28 -25
-5 -7 -13 -10 -19 -7 -6 4 -8 3 -5 -4 12 -17 -3 -41 -21 -35 -39 14 2 -10 128
-76 74 -39 132 -71 129 -71 -4 0 -73 32 -154 70 -81 39 -153 70 -161 70 -8 0
-14 5 -14 10 0 6 0 13 -1 17 0 4 33 19 73 34 78 29 106 36 73 17z m2798 -15
c-6 -16 -5 -16 11 -4 13 11 19 12 29 2 9 -10 8 -11 -5 -6 -13 5 -16 1 -14 -19
2 -14 2 -26 1 -26 -9 0 -35 52 -30 60 10 16 15 11 8 -7z m-1802 -11 c-7 -2
-18 1 -23 6 -8 8 -4 9 13 5 13 -4 18 -8 10 -11z m-520 -13 c38 -27 64 -79 78
-154 12 -62 14 -125 6 -125 -3 0 -37 16 -75 35 l-70 35 0 99 c0 139 6 149 61
110z m239 11 c8 -5 11 -10 5 -10 -5 0 -17 5 -25 10 -8 5 -10 10 -5 10 6 0 17
-5 25 -10z m2575 -1 c12 -19 -5 -23 -22 -6 -16 16 -16 17 -1 17 9 0 20 -5 23
-11z m2848 -5 c-3 -9 -9 -12 -12 -7 -3 4 -10 11 -15 16 -5 4 0 7 12 7 15 0 20
-4 15 -16z m-2291 -96 c125 -50 226 -93 224 -95 -4 -4 -453 174 -476 189 -26
17 13 2 252 -94z m-2897 82 c-28 -12 -67 -12 -60 0 3 6 23 10 43 9 30 0 33 -2
17 -9z m160 -14 c53 -20 57 -23 33 -28 -15 -3 -25 -1 -22 3 2 4 -12 13 -33 19
-21 5 -45 14 -53 20 -27 18 10 11 75 -14z m-310 -14 c-3 -3 -11 0 -18 7 -9 10
-8 11 6 5 10 -3 15 -9 12 -12z m2660 8 c3 -5 -1 -10 -9 -10 -9 0 -16 5 -16 10
0 6 4 10 9 10 6 0 13 -4 16 -10z m-2492 -7 c-7 -2 -21 -2 -30 0 -10 3 -4 5 12
5 17 0 24 -2 18 -5z m962 -20 c3 -9 0 -20 -7 -25 -8 -5 -1 -8 19 -8 18 0 47
-6 65 -14 18 -8 42 -18 53 -22 18 -6 17 -7 -10 -15 -33 -10 -114 17 -169 54
l-29 20 22 18 c24 20 46 16 56 -8z m4531 2 c27 -11 32 -19 37 -60 9 -66 9
-263 0 -268 -8 -4 -237 80 -261 96 -15 10 -15 32 -1 114 12 67 43 117 83 133
25 11 99 3 142 -15z m-3350 -16 c7 -12 4 -11 -35 2 -17 6 -31 15 -31 19 0 11
58 -8 66 -21z m-2051 11 c-3 -5 -14 -10 -23 -10 -15 0 -15 2 -2 10 20 13 33
13 25 0z m1056 0 c16 0 10 -15 -12 -28 -18 -12 -24 -11 -38 2 -14 15 -14 18
-1 26 8 5 21 8 28 5 8 -3 18 -5 23 -5z m-1196 -22 c17 -6 34 -15 39 -19 15
-13 -47 7 -80 25 -28 17 -24 16 41 -6z m6155 -14 c0 -8 -4 -14 -9 -14 -11 0
-22 26 -14 34 9 9 23 -3 23 -20z m-6270 -8 c0 -2 -13 -9 -30 -15 -16 -5 -30
-6 -30 -1 0 7 10 11 53 19 4 0 7 -1 7 -3z m5842 -16 c109 -40 158 -105 184
-237 12 -66 19 -173 11 -173 -3 0 -211 84 -264 107 -23 9 -15 323 8 323 5 0
32 -9 61 -20z m-5822 -20 c-8 -5 -22 -9 -30 -9 -10 0 -8 3 5 9 27 12 43 12 25
0z m1379 -56 c224 -93 233 -98 214 -105 -10 -4 -26 -8 -37 -8 -15 -1 -330 132
-345 145 -2 2 15 4 39 4 27 0 75 -14 129 -36z m881 6 c8 -5 11 -10 5 -10 -5 0
-17 5 -25 10 -8 5 -10 10 -5 10 6 0 17 -5 25 -10z m-190 -6 c0 -8 -19 -13 -24
-6 -3 5 1 9 9 9 8 0 15 -2 15 -3z m230 -15 c-24 -11 -49 -23 -55 -27 -6 -4 0
3 14 15 23 20 45 29 76 31 6 0 -10 -8 -35 -19z m990 11 c8 -5 11 -10 5 -10 -5
0 -17 5 -25 10 -8 5 -10 10 -5 10 6 0 17 -5 25 -10z m-2455 -40 c-3 -5 -11
-10 -16 -10 -6 0 -7 5 -4 10 3 6 11 10 16 10 6 0 7 -4 4 -10z m1377 -2 c-14
-14 -44 -20 -36 -7 3 5 9 7 14 4 5 -3 11 -1 15 5 3 5 9 10 13 10 3 0 1 -5 -6
-12z m1178 2 c8 -5 11 -10 5 -10 -5 0 -17 5 -25 10 -8 5 -10 10 -5 10 6 0 17
-5 25 -10z m-2698 -11 c-15 -6 -30 -5 -40 1 -13 7 -8 9 23 9 35 0 37 -1 17
-10z m108 1 c0 -5 -2 -10 -4 -10 -3 0 -8 5 -11 10 -3 6 -1 10 4 10 6 0 11 -4
11 -10z m-162 -18 c3 -9 -6 -12 -30 -12 -18 1 -46 -1 -63 -5 -27 -5 -26 -3 10
15 43 22 76 22 83 2z m242 8 c-20 -13 -33 -13 -25 0 3 6 14 10 23 10 15 0 15
-2 2 -10z m2560 0 c8 -5 11 -10 5 -10 -5 0 -17 5 -25 10 -8 5 -10 10 -5 10 6
0 17 -5 25 -10z m-5052 -32 c48 -51 74 -119 75 -202 2 -171 -101 -208 -175
-63 -27 53 -32 75 -36 152 -4 81 -2 93 18 118 31 39 76 37 118 -5z m2366 23
c7 -10 -30 -19 -56 -13 -10 2 -18 8 -18 13 0 12 67 12 74 0z m2766 -23 c10 -6
7 -7 -10 -2 -14 3 -32 11 -40 16 -10 6 -7 7 10 2 14 -3 32 -11 40 -16z m-2860
2 c0 -5 -7 -10 -16 -10 -8 0 -12 5 -9 10 3 6 10 10 16 10 5 0 9 -4 9 -10z
m360 -5 c0 -1 -12 -2 -26 -2 -17 0 -22 2 -13 7 10 7 39 3 39 -5z m-310 -5 c0
-5 -7 -10 -15 -10 -8 0 -15 5 -15 10 0 6 7 10 15 10 8 0 15 -4 15 -10z m1495
-9 c3 -5 2 -12 -3 -15 -5 -3 -9 1 -9 9 0 17 3 19 12 6z m-1542 -8 c-7 -2 -19
-2 -25 0 -7 3 -2 5 12 5 14 0 19 -2 13 -5z m117 -13 c0 -5 -14 -10 -31 -10
-17 0 -28 4 -24 10 3 6 17 10 31 10 13 0 24 -4 24 -10z m226 1 c-5 -8 -83 -31
-105 -31 -6 0 -11 4 -11 9 0 6 19 14 43 19 56 13 79 14 73 3z m754 -32 c54
-26 62 -32 45 -39 -20 -7 -58 5 -153 48 -27 12 -39 22 -30 25 22 10 70 -2 138
-34z m590 10 c20 -11 7 -11 -24 1 -19 7 -36 5 -69 -9 -34 -15 -44 -16 -44 -5
0 7 4 11 8 9 4 -3 22 2 40 10 33 14 57 12 89 -6z m-3641 -42 c-2 -3 -15 10
-28 27 l-24 31 28 -27 c16 -15 27 -29 24 -31z m1706 33 c-3 -5 -13 -10 -21
-10 -8 0 -13 -4 -9 -9 3 -6 18 -6 38 0 41 12 56 11 37 -2 -11 -7 -4 -8 24 -3
28 5 37 4 32 -5 -5 -8 -35 -10 -98 -6 -77 4 -89 2 -84 -10 4 -10 -1 -15 -14
-15 -36 0 -21 27 28 48 51 23 77 28 67 12z m670 0 c-3 -5 -19 -10 -36 -10 -34
0 -39 -17 -6 -23 20 -3 20 -4 4 -12 -18 -7 -103 22 -92 33 2 2 30 8 62 12 32
4 62 8 66 9 5 0 5 -3 2 -9z m2605 0 c8 -5 11 -10 5 -10 -5 0 -17 5 -25 10 -8
5 -10 10 -5 10 6 0 17 -5 25 -10z m-1280 -15 c14 -8 21 -14 15 -14 -5 0 -21 6
-35 14 -14 8 -20 14 -15 14 6 0 21 -6 35 -14z m1350 -11 c23 -9 39 -18 37 -20
-2 -3 -24 4 -48 15 -54 24 -45 27 11 5z m-1265 -25 c22 -10 29 -16 15 -13 -28
7 -80 33 -65 33 6 0 28 -9 50 -20z m-3765 -48 c0 -32 -6 -24 -14 19 -4 25 -3
31 4 20 5 -8 10 -26 10 -39z m1845 39 c-8 -13 -35 -13 -55 0 -11 7 -5 10 23
10 23 0 36 -4 32 -10z m3295 -10 c8 -5 11 -10 5 -10 -5 0 -17 5 -25 10 -8 5
-10 10 -5 10 6 0 17 -5 25 -10z m-1300 -10 c8 -5 11 -10 5 -10 -5 0 -17 5 -25
10 -8 5 -10 10 -5 10 6 0 17 -5 25 -10z m-1770 -10 c0 -5 -3 -10 -7 -10 -5 0
-25 -4 -45 -9 -47 -11 -49 -6 -5 13 39 17 57 19 57 6z m50 -20 c0 -5 -15 -10
-32 -10 -23 0 -29 -3 -19 -9 9 -6 10 -11 2 -15 -5 -4 -19 -1 -30 6 -20 12 -19
13 7 24 34 15 72 17 72 4z m159 -5 c-11 -11 -79 -35 -79 -28 0 9 73 42 79 36
2 -1 2 -5 0 -8z m2991 -5 c8 -5 11 -10 5 -10 -5 0 -17 5 -25 10 -8 5 -10 10
-5 10 6 0 17 -5 25 -10z m-3100 -20 c0 -5 -9 -10 -19 -10 -11 0 -23 -4 -26
-10 -3 -5 -18 -10 -33 -9 l-27 0 25 11 c14 5 32 14 40 18 21 12 40 12 40 0z
m230 0 c0 -5 -4 -10 -9 -10 -5 0 -24 -3 -42 -6 l-34 -5 25 15 c29 18 60 21 60
6z m-575 -20 c-3 -5 -16 -10 -28 -9 -21 0 -21 1 -2 9 28 12 37 12 30 0z m610
1 c9 -15 -29 -31 -56 -24 -24 7 -24 7 6 19 37 16 42 16 50 5z m-486 -5 c-2 -1
-19 -8 -36 -14 -37 -12 -45 -6 -10 8 22 9 54 13 46 6z m4666 -6 c-3 -5 -11
-10 -16 -10 -6 0 -7 5 -4 10 3 6 11 10 16 10 6 0 7 -4 4 -10z m-4310 -10 c-3
-5 -15 -10 -26 -10 -11 0 -17 5 -14 10 3 6 15 10 26 10 11 0 17 -4 14 -10z
m-325 -10 c0 -5 -9 -10 -19 -10 -11 0 -22 -4 -25 -9 -8 -13 -53 -19 -68 -10
-9 6 -5 9 13 9 15 0 42 7 60 15 41 17 39 17 39 5z m180 -10 c-36 -11 -52 -11
-45 0 3 6 21 10 38 9 31 -1 31 -1 7 -9z m180 0 c0 -5 -12 -10 -27 -10 -22 0
-25 2 -13 10 20 13 40 13 40 0z m1400 0 c0 -15 -27 -23 -47 -16 -15 6 -15 8
-3 16 20 13 50 12 50 0z m-1475 -21 c18 0 18 -1 -3 -10 -14 -5 -37 -6 -55 0
l-32 8 25 11 c15 6 29 6 35 1 5 -5 18 -9 30 -10z m-231 -24 c-42 -19 -91 -30
-81 -19 10 10 75 32 97 32 8 0 1 -6 -16 -13z m4576 5 c0 -5 -2 -10 -4 -10 -3
0 -8 5 -11 10 -3 6 -1 10 4 10 6 0 11 -4 11 -10z m-3000 -10 c-19 -13 -30 -13
-30 0 0 6 10 10 23 10 18 0 19 -2 7 -10z m-1501 -9 c9 -6 10 -11 2 -15 -14 -9
-51 2 -51 15 0 11 30 12 49 0z m1630 -20 c12 -8 9 -11 -11 -16 -29 -8 -52 1
-43 16 8 12 36 11 54 0z m2351 -6 c-8 -9 -9 -15 -2 -15 6 0 14 5 17 10 3 6 12
10 18 10 7 0 6 -4 -3 -10 -13 -8 -12 -10 5 -10 16 0 17 -2 6 -12 -11 -11 -14
-10 -18 0 -3 6 -9 10 -14 6 -17 -10 -31 7 -18 22 6 8 14 14 16 14 3 0 0 -7 -7
-15z m-6505 -19 c24 -16 22 2 38 -308 2 -32 2 -58 -1 -58 -11 0 -140 91 -160
112 -29 32 -38 105 -23 179 16 74 42 103 88 96 20 -4 45 -13 58 -21z m2585 14
c-20 -13 -63 -13 -55 0 3 6 21 10 38 10 24 0 28 -3 17 -10z m4016 -29 c-4 -6
-12 -11 -18 -11 -7 0 -6 6 2 15 10 12 9 15 -4 15 -10 0 -14 5 -10 11 4 7 11 6
21 -4 9 -8 12 -20 9 -26z m-6179 -33 c-2 -13 -4 -3 -4 22 0 25 2 35 4 23 2
-13 2 -33 0 -45z m3612 23 c11 -7 10 -10 -6 -15 -23 -7 -53 2 -53 15 0 11 41
11 59 0z m216 0 c8 -14 -12 -23 -36 -16 -17 6 -19 9 -8 16 18 11 36 11 44 0z
m233 -25 c-10 -7 -14 -16 -10 -20 4 -4 -6 -2 -21 5 -26 12 -27 14 -10 20 10 4
27 8 38 8 19 0 19 -1 3 -13z m-4346 -21 c20 -13 45 -39 56 -57 42 -69 94 -298
75 -332 -8 -14 -20 -11 -101 29 l-92 44 0 171 c0 188 0 187 62 145z m4012 -9
c20 -10 23 -15 12 -19 -9 -4 -27 0 -41 7 -18 9 -22 16 -13 19 7 3 14 6 14 6 1
1 14 -5 28 -13z m2286 -12 c0 -16 -26 -19 -35 -4 -3 6 -4 14 0 20 8 13 35 1
35 -16z m-1988 -15 c72 -34 81 -44 47 -54 -29 -9 -179 62 -159 75 24 15 39 12
112 -21z m2063 1 c-3 -5 -11 -10 -16 -10 -6 0 -7 5 -4 10 3 6 11 10 16 10 6 0
7 -4 4 -10z m-2490 -10 c-3 -5 0 -10 7 -10 8 0 6 -5 -5 -11 -23 -13 -57 9 -35
22 18 12 40 11 33 -1z m2525 6 c0 -3 -4 -8 -10 -11 -5 -3 -10 -1 -10 4 0 6 5
11 10 11 6 0 10 -2 10 -4z m-2146 -77 c5 -4 -2 -11 -15 -14 -17 -4 -48 5 -99
30 -41 19 -65 33 -53 30 12 -3 24 -1 27 4 6 9 118 -31 140 -50z m-324 41 c-8
-5 -22 -10 -30 -10 -13 0 -13 1 0 10 8 5 22 10 30 10 13 0 13 -1 0 -10z
m-1022 -27 l44 -17 -43 -22 c-24 -13 -52 -23 -62 -24 -19 0 -77 30 -77 40 0 5
73 37 90 39 2 1 24 -7 48 -16z m3907 8 c-4 -8 -64 -5 -72 3 -2 2 14 4 37 4 22
0 38 -3 35 -7z m-2318 -30 l68 -30 -30 -11 c-25 -10 -38 -7 -92 16 -57 24 -62
28 -46 40 24 18 21 18 100 -15z m1633 10 c0 -5 -7 -12 -16 -15 -14 -5 -15 -4
-4 9 14 17 20 19 20 6z m29 -8 c-3 -20 2 -24 16 -13 9 7 15 8 15 2 0 -16 -33
-24 -42 -10 -11 18 -10 28 2 28 6 0 9 -3 9 -7z m-3065 -38 l49 -25 -69 -31
-68 -31 -51 25 -50 24 65 31 c36 17 67 31 70 31 3 1 27 -10 54 -24z m1357 -40
c81 -36 154 -65 161 -65 7 -1 0 -8 -15 -16 -34 -18 -40 -16 -231 74 -90 43
-114 58 -100 63 30 12 30 12 185 -56z m1679 55 c0 -5 -5 -10 -11 -10 -5 0 -7
5 -4 10 3 6 8 10 11 10 2 0 4 -4 4 -10z m550 -30 c0 -5 -10 -14 -22 -21 -18
-10 -20 -9 -15 5 5 11 1 15 -15 13 -11 -1 -23 4 -26 12 -3 11 2 12 23 7 19 -5
25 -3 20 5 -6 8 -2 8 14 0 11 -7 21 -16 21 -21z m-2033 -16 l63 -27 -26 -13
c-23 -12 -33 -11 -90 14 -60 27 -63 29 -42 40 31 14 25 15 95 -14z m-389 -20
c57 -25 61 -28 43 -40 -17 -12 -28 -10 -87 17 -52 23 -65 32 -54 39 22 14 29
13 98 -16z m2435 11 c-3 -9 -8 -14 -10 -11 -3 3 -2 9 2 15 9 16 15 13 8 -4z
m-3439 -16 c15 -12 38 -22 51 -23 14 0 25 -2 25 -3 0 -2 -36 -21 -81 -44 l-81
-40 -55 27 -55 27 78 37 c44 21 82 39 85 39 4 1 18 -8 33 -20z m3913 5 c-3 -3
-12 -4 -19 -1 -8 3 -5 6 6 6 11 1 17 -2 13 -5z m19 -28 c0 -14 -6 -22 -13 -19
-7 3 -13 7 -13 9 0 4 23 33 26 34 1 0 1 -11 0 -24z m44 4 c0 -5 -2 -10 -4 -10
-3 0 -8 5 -11 10 -3 6 -1 10 4 10 6 0 11 -4 11 -10z m-2289 -82 c93 -39 169
-74 169 -78 0 -4 -11 -12 -24 -18 -21 -9 -43 -2 -163 52 -215 98 -217 99 -196
107 32 13 43 10 214 -63z m-1507 13 l53 -28 -76 -32 c-43 -17 -84 -31 -92 -31
-8 0 -32 11 -54 24 l-40 24 75 35 c41 20 76 36 78 36 1 1 26 -12 56 -28z
m3127 4 c5 4 9 2 9 -4 0 -16 -18 -22 -23 -9 -4 10 -8 9 -16 -2 -6 -8 -11 -10
-11 -4 0 7 -7 11 -16 10 -9 0 -19 5 -22 13 -3 9 1 11 17 6 13 -4 21 -2 21 5 0
7 7 5 16 -4 8 -9 20 -14 25 -11z m-1814 -30 c72 -32 75 -34 43 -35 -34 -1 -34
-1 -15 -16 19 -16 19 -16 -5 -9 -14 4 -32 13 -40 21 -9 7 -39 21 -68 30 -54
18 -65 29 -34 37 33 9 42 7 119 -28z m2324 1 c5 3 9 1 9 -5 0 -5 -9 -9 -20 -8
-21 1 -25 9 -13 21 4 4 9 2 11 -3 2 -6 8 -9 13 -5z m44 -6 c0 -7 -7 -16 -15
-18 -13 -4 -13 -3 -2 10 9 11 9 18 2 21 -6 3 -5 4 2 3 7 -2 13 -9 13 -16z
m-3185 -5 c-14 -8 -29 -14 -35 -14 -5 0 1 6 15 14 14 8 30 14 35 14 6 0 -1 -6
-15 -14z m115 -5 c-11 -17 -66 -33 -77 -22 -8 8 -4 9 12 5 16 -4 21 -3 16 5
-5 8 -2 10 9 6 11 -4 14 -2 9 9 -4 12 -1 14 15 10 11 -3 19 -9 16 -13z m-380
-12 c17 -6 33 -14 38 -18 8 -7 -192 -100 -214 -100 -8 1 -34 11 -57 24 l-44
22 109 47 c59 26 115 44 123 41 8 -3 29 -11 45 -16z m871 -3 c-16 -17 -36 -20
-36 -6 0 8 17 16 43 20 5 0 2 -6 -7 -14z m3024 -27 c0 -4 -4 -8 -9 -8 -6 0
-12 4 -15 8 -3 5 1 9 9 9 8 0 15 -4 15 -9z m-3782 -111 l-122 -58 -53 23 c-29
13 -53 25 -53 28 0 3 54 30 120 61 l119 56 55 -26 56 -26 -122 -58z m193 90
c-7 -7 -14 -8 -21 -1 -6 6 -2 10 12 11 16 2 18 -1 9 -10z m254 3 c4 -6 -12
-10 -42 -10 -35 0 -44 3 -33 10 20 13 67 13 75 0z m658 -3 c6 -17 79 -39 103
-31 18 5 18 5 0 -10 -26 -21 -33 -21 -107 13 -47 21 -58 30 -44 34 34 8 43 7
48 -6z m2802 3 c-3 -5 -12 -10 -18 -10 -7 0 -6 4 3 10 19 12 23 12 15 0z
m-3118 -51 l88 -42 -40 -7 c-29 -6 -51 -3 -82 11 -72 31 -133 70 -127 81 11
17 68 2 161 -43z m3060 45 c-3 -3 -12 -4 -19 -1 -8 3 -5 6 6 6 11 1 17 -2 13
-5z m-3392 -24 c3 -5 -1 -10 -9 -10 -9 0 -16 5 -16 10 0 6 4 10 9 10 6 0 13
-4 16 -10z m2665 -5 c0 -8 3 -14 8 -14 18 3 33 -2 28 -10 -5 -7 -21 -8 -61 -2
-5 1 -3 5 5 11 8 5 11 12 7 16 -3 4 -15 1 -24 -7 -16 -13 -17 -12 -4 4 17 21
41 22 41 2z m44 6 c4 -5 -3 -7 -14 -4 -23 6 -26 13 -6 13 8 0 17 -4 20 -9z
m-1160 -20 c-5 -5 -157 -88 -339 -186 -446 -240 -768 -415 -896 -486 l-107
-60 -80 47 -80 47 71 35 c40 19 90 37 112 39 22 3 48 10 59 15 14 8 17 7 11
-3 -6 -8 -4 -10 6 -3 8 4 19 9 24 11 6 1 20 4 33 7 12 3 20 1 17 -4 -3 -4 3
-7 12 -5 10 2 22 4 26 4 5 1 5 7 1 14 -5 8 -2 8 9 -2 16 -12 22 -8 18 12 -1 5
3 6 9 2 6 -3 8 -10 5 -15 -3 -4 1 -13 8 -19 10 -8 80 25 288 135 344 183 748
402 773 420 21 14 37 10 20 -5z m-1669 -4 c28 -21 2 -31 -41 -15 -29 10 -32
14 -17 19 27 11 37 10 58 -4z m271 -18 c31 -18 32 -22 18 -36 -13 -14 -19 -14
-57 1 -23 9 -49 21 -57 26 -13 9 -13 11 0 20 24 16 60 12 96 -11z m3048 -18
c4 -5 -5 -4 -19 2 -14 7 -25 16 -25 20 0 9 36 -9 44 -22z m-3424 -11 l35 -18
-28 -7 c-28 -7 -87 10 -87 25 0 7 18 15 40 18 3 1 21 -7 40 -18z m1077 6 c3
-3 15 -6 25 -6 13 0 17 -4 12 -12 -6 -10 -4 -10 8 0 9 7 19 9 22 4 3 -5 -5
-14 -17 -19 -18 -9 -33 -5 -77 17 l-54 27 38 -2 c20 -1 40 -5 43 -9z m-717
-73 l25 -10 -30 -15 c-28 -15 -32 -14 -119 30 l-91 45 29 12 c26 11 37 9 95
-19 36 -18 77 -37 91 -43z m-3360 36 c0 -14 -17 -10 -23 5 -4 10 -1 13 9 9 7
-3 14 -9 14 -14z m40 6 c0 -12 -19 -12 -23 0 -4 9 -1 12 9 8 7 -3 14 -7 14 -8z
m-85 -5 c-3 -5 -12 -10 -18 -10 -7 0 -6 4 3 10 19 12 23 12 15 0z m3542 4 c-3
-3 -12 -4 -19 -1 -8 3 -5 6 6 6 11 1 17 -2 13 -5z m-57 -14 c0 -5 -5 -10 -11
-10 -5 0 -7 5 -4 10 3 6 8 10 11 10 2 0 4 -4 4 -10z m-3480 -20 c-8 -5 -19
-10 -25 -10 -5 0 -3 5 5 10 8 5 20 10 25 10 6 0 3 -5 -5 -10z m3600 -10 c11
-7 11 -10 2 -10 -7 0 -10 -5 -7 -10 4 -6 -5 -5 -20 2 -18 8 -22 14 -13 20 16
10 20 10 38 -2z m271 -16 c49 -24 50 -26 31 -40 -18 -12 -27 -11 -77 11 -48
22 -55 28 -45 40 17 21 33 19 91 -11z m-223 -15 c-7 -5 -20 -8 -28 -8 -10 0
-11 2 -2 6 6 2 10 8 7 13 -3 4 4 6 16 3 16 -4 17 -8 7 -14z m2671 -9 c-6 -5
-18 -6 -26 -3 -19 8 -16 11 13 11 17 0 22 -3 13 -8z m28 -10 c-14 -11 -29 -20
-34 -20 -10 1 39 39 51 40 5 0 -3 -9 -17 -20z m47 1 c3 -5 -1 -14 -8 -20 -12
-10 -13 -8 -9 8 6 23 9 25 17 12z m-6568 -33 c-17 -10 -46 0 -46 15 0 7 4 7
12 -1 18 -18 32 -14 17 5 -13 15 -12 15 8 2 18 -11 20 -15 9 -21z m6534 12 c0
-5 -5 -10 -11 -10 -5 0 -7 5 -4 10 3 6 8 10 11 10 2 0 4 -4 4 -10z m-6495 -19
c3 -5 1 -12 -5 -16 -5 -3 -10 1 -10 9 0 18 6 21 15 7z m412 -28 c-9 -9 -20
-13 -24 -9 -4 4 -1 11 7 16 25 16 35 11 17 -7z m48 7 c3 -6 -1 -7 -9 -4 -18 7
-21 14 -7 14 6 0 13 -4 16 -10z m-579 -12 c10 -16 -22 -36 -51 -30 -24 4 -33
21 -18 35 11 11 61 8 69 -5z m537 -19 c-16 -17 -25 -19 -39 -10 -17 9 -16 10
8 11 15 0 30 5 33 10 3 6 9 10 13 10 3 0 -3 -10 -15 -21z m-159 -90 c-8 -14
-21 -11 -21 5 0 8 6 12 14 9 7 -3 10 -9 7 -14z m26 -19 c0 -5 -2 -10 -4 -10
-3 0 -8 5 -11 10 -3 6 -1 10 4 10 6 0 11 -4 11 -10z m499 -12 c-2 -2 -17 -14
-34 -28 -22 -19 -26 -20 -15 -5 8 11 21 24 28 28 7 5 9 14 6 20 -5 9 -3 8 6 0
8 -7 12 -14 9 -15z m-630 3 c9 -6 10 -11 2 -15 -6 -4 -11 -3 -11 3 0 5 -8 12
-17 14 -13 3 -14 5 -3 6 8 0 21 -3 29 -8z m577 -2 c10 -17 -19 -39 -44 -32
-22 5 -22 7 -6 24 19 21 39 24 50 8z m-1304 -26 c17 -20 20 -53 6 -53 -5 0 -6
9 -3 21 6 18 5 19 -14 7 -28 -17 -51 3 -31 27 16 19 23 19 42 -2z m79 0 c13
-16 12 -17 -3 -4 -17 13 -22 21 -14 21 2 0 10 -8 17 -17z m624 7 c-3 -5 -11
-10 -16 -10 -6 0 -7 5 -4 10 3 6 11 10 16 10 6 0 7 -4 4 -10z m-648 -20 c11
-17 10 -21 -10 -31 -20 -11 -21 -11 -8 4 11 14 11 20 1 32 -7 8 -8 15 -4 15 5
0 15 -9 21 -20z m608 -9 c-6 -5 -25 10 -25 20 0 5 6 4 14 -3 8 -7 12 -15 11
-17z m65 15 c0 -2 -7 -9 -15 -16 -13 -11 -14 -10 -9 4 5 14 24 23 24 12z m347
-82 c-3 -3 -12 -4 -19 -1 -8 3 -5 6 6 6 11 1 17 -2 13 -5z m47 -26 c-5 -7 -1
-9 9 -5 10 3 17 2 17 -3 0 -6 -9 -10 -20 -10 -14 0 -20 7 -20 21 0 11 5 17 10
14 6 -4 7 -11 4 -17z m3341 3 c3 -5 2 -12 -3 -15 -5 -3 -9 1 -9 9 0 17 3 19
12 6z m-2882 -52 c-14 -10 -32 -15 -39 -12 -17 6 -18 14 -1 12 30 -4 38 1 32
22 -6 18 -5 19 14 8 20 -13 20 -13 -6 -30z m4111 11 c150 -38 260 -110 301
-197 22 -47 16 -121 -15 -165 -126 -186 -578 -181 -779 7 -104 97 -109 192
-16 273 80 71 175 100 326 101 74 1 129 -5 183 -19z m-4725 -13 c-13 -13 -26
-22 -28 -20 -7 5 31 43 42 43 6 0 -1 -10 -14 -23z m41 15 c0 -5 -7 -17 -15
-28 -14 -18 -14 -17 -4 9 12 27 19 34 19 19z m17 -14 c-3 -8 -6 -5 -6 6 -1 11
2 17 5 13 3 -3 4 -12 1 -19z m-543 -68 c-6 -6 -10 -3 -10 10 0 13 4 16 10 10
7 -7 7 -13 0 -20z m-95 -4 c9 -10 7 -17 -6 -27 -16 -13 -17 -12 -5 3 9 11 10
18 2 23 -18 11 -43 -3 -36 -21 3 -8 2 -12 -4 -9 -14 9 -12 32 3 38 22 9 34 7
46 -7z m991 0 c0 -2 -8 -10 -17 -17 -16 -13 -17 -12 -4 4 13 16 21 21 21 13z
m-949 -22 c-18 -13 -20 -18 -10 -25 11 -7 10 -9 -3 -9 -10 0 -18 3 -18 7 0 11
32 43 44 43 6 0 0 -7 -13 -16z m962 -1 c-6 -15 -4 -16 9 -5 21 17 48 -12 29
-31 -10 -9 -11 -8 -5 7 6 16 4 18 -9 13 -27 -10 -50 2 -36 19 15 19 20 18 12
-3z m561 -38 c16 -12 17 -15 4 -15 -8 0 -21 7 -28 15 -16 19 -1 19 24 0z
m-667 -4 c8 7 13 8 13 1 0 -5 -10 -16 -22 -24 -22 -14 -23 -14 -25 9 -1 18 2
22 10 14 7 -7 14 -7 24 0z m620 2 c-4 -3 -2 -12 5 -20 16 -20 -5 -37 -36 -29
-33 8 -33 17 2 38 28 18 40 23 29 11z m-675 -20 c-10 -4 -10 -8 -1 -19 14 -17
-2 -19 -19 -2 -9 9 -7 14 6 24 9 7 19 10 22 7 3 -3 -1 -8 -8 -10z m81 -24 c-6
-6 -19 -9 -29 -6 -16 4 -15 5 4 6 12 0 22 6 22 13 0 6 3 8 7 5 4 -4 2 -12 -4
-18z m652 11 c-3 -5 -11 -10 -16 -10 -6 0 -7 5 -4 10 3 6 11 10 16 10 6 0 7
-4 4 -10z m-242 -123 c-5 -8 -8 -7 -11 1 -2 7 -8 10 -13 7 -5 -4 -6 1 -3 10 5
12 10 13 20 4 8 -6 11 -16 7 -22z m-916 -47 c6 -24 16 -25 33 -5 7 8 17 15 22
15 6 0 5 -7 -2 -15 -23 -28 -2 -27 35 1 32 24 38 26 52 12 11 -12 12 -17 2
-23 -7 -5 -10 -4 -5 3 10 17 -13 25 -30 11 -14 -12 -14 -14 3 -21 14 -7 13 -7
-6 -4 -15 3 -35 -3 -52 -15 -28 -20 -59 -25 -59 -11 0 5 8 8 18 8 19 -1 29 18
9 20 -6 0 -32 2 -56 2 -43 2 -44 2 -26 22 10 11 27 20 37 20 11 0 22 -9 25
-20z m763 -1 c0 -5 5 -7 11 -3 7 4 10 1 7 -6 -8 -25 -35 -35 -52 -21 -12 11
-14 17 -5 27 14 17 39 19 39 3z m40 -34 c-7 -8 -18 -15 -24 -15 -6 0 -2 7 8
15 25 19 32 19 16 0z m-430 -200 c9 -10 9 -15 1 -15 -6 0 -11 4 -11 9 0 5 -8
12 -17 14 -15 4 -15 5 -2 6 9 0 22 -6 29 -14z m83 -7 c4 -13 -48 -58 -67 -58
-5 0 -1 7 10 15 16 13 17 16 4 25 -11 8 -8 9 14 4 25 -6 28 -4 23 10 -4 9 -2
16 2 16 5 0 11 -6 14 -12z m-128 -18 c3 -6 -1 -7 -9 -4 -18 7 -21 14 -7 14 6
0 13 -4 16 -10z"/>
<path d="M4886 7861 c-3 -5 3 -11 15 -14 16 -4 18 -3 8 9 -13 16 -16 17 -23 5z"/>
<path d="M4845 7628 c-3 -7 -4 -29 -4 -48 0 -19 -1 -44 -3 -55 -2 -11 1 -20 6
-20 5 0 10 30 10 68 1 67 -1 78 -9 55z"/>
<path d="M4916 7743 c-6 -14 -5 -15 5 -6 7 7 10 15 7 18 -3 3 -9 -2 -12 -12z"/>
<path d="M4914 7668 c1 -36 4 -44 14 -36 8 7 9 15 3 22 -5 6 -11 22 -14 36 -2
14 -4 4 -3 -22z"/>
<path d="M5039 7172 c0 -4 -2 -15 -4 -25 -3 -18 -3 -18 16 -1 10 9 19 18 19
19 0 7 -30 13 -31 7z"/>
<path d="M4895 7042 c2 -12 9 -30 15 -39 8 -15 9 -12 4 12 -8 34 -26 60 -19
27z"/>
<path d="M4920 7023 c0 -4 5 -15 10 -23 8 -13 10 -13 10 2 0 9 -4 20 -10 23
-5 3 -10 3 -10 -2z"/>
<path d="M9639 6479 c-6 -12 -9 -37 -6 -55 6 -36 61 -126 99 -162 l24 -22 52
35 c60 41 72 59 72 115 0 68 -58 111 -105 76 -17 -12 -21 -11 -38 10 -25 32
-81 33 -98 3z"/>
<path d="M3996 5911 c-4 -5 -2 -12 3 -15 5 -4 12 -2 15 3 4 5 2 12 -3 15 -5 4
-12 2 -15 -3z"/>
<path d="M3216 4973 c-6 -14 -5 -15 5 -6 7 7 10 15 7 18 -3 3 -9 -2 -12 -12z"/>
<path d="M3239 4471 c7 -5 10 -14 7 -20 -4 -6 -5 -11 -2 -11 3 0 10 8 15 18 8
14 5 18 -12 19 -16 2 -18 0 -8 -6z"/>
<path d="M3275 4440 c3 -5 11 -10 16 -10 6 0 7 5 4 10 -3 6 -11 10 -16 10 -6
0 -7 -4 -4 -10z"/>
<path d="M3379 4448 c-5 -18 -6 -38 -1 -34 7 8 12 36 6 36 -2 0 -4 -1 -5 -2z"/>
<path d="M3351 4424 c0 -11 3 -14 6 -6 3 7 2 16 -1 19 -3 4 -6 -2 -5 -13z"/>
<path d="M2499 4488 c-1 -7 -1 -22 0 -33 1 -15 0 -17 -7 -7 -7 11 -10 10 -16
-3 -3 -9 -10 -13 -16 -10 -6 3 -7 -1 -4 -10 6 -14 8 -14 19 2 13 17 14 16 24
-9 5 -14 15 -29 21 -33 5 -3 7 -11 4 -17 -4 -7 -2 -8 4 -4 8 5 9 13 2 25 -5
10 -7 21 -4 24 9 9 10 77 2 77 -5 0 -8 -12 -9 -27 0 -24 -1 -25 -8 -8 -5 11
-6 26 -4 33 3 6 2 12 -1 12 -3 0 -7 -6 -7 -12z m24 -65 c-3 -7 -6 -13 -8 -13
-2 0 -5 6 -8 13 -3 8 1 14 8 14 7 0 11 -6 8 -14z"/>
<path d="M7896 4358 c3 -5 9 -7 12 -4 3 3 11 1 18 -5 8 -7 14 -7 19 1 4 6 3
10 -2 9 -4 -1 -10 0 -13 1 -20 7 -39 7 -34 -2z"/>
<path d="M1205 4299 c-4 -6 -5 -12 -2 -15 2 -3 7 2 10 11 7 17 1 20 -8 4z"/>
<path d="M5261 3116 c-19 -11 -21 -14 -7 -19 9 -4 16 -2 16 3 0 5 7 7 15 4 8
-4 12 -11 8 -18 -3 -6 -1 -6 8 2 16 15 33 16 23 0 -4 -7 -3 -8 5 -4 6 4 8 12
5 18 -4 6 2 8 17 4 18 -4 16 -2 -6 9 -37 18 -54 18 -84 1z m59 -2 c0 -8 -19
-13 -24 -6 -3 5 1 9 9 9 8 0 15 -2 15 -3z"/>
<path d="M5768 3038 c5 -5 16 -8 23 -6 8 3 3 7 -10 11 -17 4 -21 3 -13 -5z"/>
<path d="M5806 3022 c-3 -5 9 -7 27 -4 22 2 28 0 19 -6 -11 -7 -11 -10 3 -15
9 -4 13 -3 10 3 -3 6 -1 10 5 10 6 0 8 5 5 10 -7 12 -62 13 -69 2z"/>
<path d="M5884 2938 l-19 -23 23 19 c21 18 27 26 19 26 -2 0 -12 -10 -23 -22z"/>
<path d="M5331 2866 c-9 -11 -9 -16 1 -22 7 -4 10 -4 6 1 -4 4 -3 14 3 22 6 7
9 13 6 13 -2 0 -10 -6 -16 -14z"/>
<path d="M5945 2862 c13 -9 13 -32 0 -32 -5 0 -10 4 -10 9 0 5 -3 12 -7 16 -3
4 -5 0 -4 -9 1 -8 5 -18 9 -22 7 -8 0 -24 -12 -24 -4 0 -8 7 -9 15 -1 8 -3 22
-4 30 -1 8 -5 12 -10 9 -4 -3 -4 -13 2 -23 5 -10 7 -21 4 -24 -3 -3 8 -13 26
-22 18 -9 34 -15 36 -13 9 10 11 54 2 65 -6 8 -4 11 9 9 12 -2 17 -10 15 -26
-2 -14 0 -20 7 -15 6 3 9 10 6 15 -3 5 0 12 6 16 7 4 -1 12 -21 20 -35 15 -62
19 -45 6z m20 -53 c-5 -25 -15 -38 -15 -20 0 7 -5 9 -12 5 -7 -4 -4 2 6 14 24
27 26 27 21 1z"/>
<path d="M5375 2850 c-4 -6 -12 -7 -18 -4 -7 4 -9 3 -4 -1 4 -5 18 -10 30 -11
12 -2 16 0 9 2 -6 3 -10 10 -6 15 3 5 3 9 0 9 -3 0 -8 -5 -11 -10z"/>
<path d="M5519 2773 c-13 -16 -12 -17 4 -4 9 7 17 15 17 17 0 8 -8 3 -21 -13z"/>
<path d="M5128 2843 c7 -3 16 -2 19 1 4 3 -2 6 -13 5 -11 0 -14 -3 -6 -6z"/>
<path d="M8670 2220 c0 -5 5 -10 11 -10 5 0 7 5 4 10 -3 6 -8 10 -11 10 -2 0
-4 -4 -4 -10z"/>
<path d="M9065 2060 c3 -5 8 -10 11 -10 2 0 4 5 4 10 0 6 -5 10 -11 10 -5 0
-7 -4 -4 -10z"/>
<path d="M7037 2019 c7 -7 15 -10 18 -7 3 3 -2 9 -12 12 -14 6 -15 5 -6 -5z"/>
<path d="M6643 2005 c26 -14 53 -23 59 -19 8 5 -3 14 -28 25 -61 27 -85 22
-31 -6z"/>
<path d="M5880 1826 c0 -3 9 -10 20 -16 11 -6 20 -8 20 -6 0 3 -9 10 -20 16
-11 6 -20 8 -20 6z"/>
<path d="M7058 1222 c-11 -15 -11 -15 4 -4 10 8 19 9 22 3 4 -5 -2 -14 -11
-20 -26 -15 -2 -13 26 3 19 10 21 15 10 22 -23 14 -37 13 -51 -4z"/>
<path d="M3060 1530 c0 -5 11 -10 25 -10 14 0 25 5 25 10 0 6 -11 10 -25 10
-14 0 -25 -4 -25 -10z"/>
<path d="M3937 1394 c-11 -11 3 -24 18 -18 8 4 12 10 9 15 -6 11 -18 12 -27 3z"/>
<path d="M2635 1369 c-10 -15 1 -23 20 -15 9 3 13 10 10 16 -8 13 -22 13 -30
-1z"/>
<path d="M8038 1215 c-117 -29 -208 -96 -228 -165 -18 -64 17 -138 96 -201
128 -102 357 -145 533 -100 141 35 198 80 222 175 11 44 10 51 -17 103 -37 72
-120 131 -237 169 -103 33 -279 42 -369 19z m499 -272 c-3 -10 -5 -2 -5 17 0
19 2 27 5 18 2 -10 2 -26 0 -35z m-17 -46 c0 -2 -10 -12 -22 -23 l-23 -19 19
23 c18 21 26 27 26 19z"/>
<path d="M4540 1040 c0 -5 7 -10 15 -10 8 0 15 5 15 10 0 6 -7 10 -15 10 -8 0
-15 -4 -15 -10z"/>
<path d="M3425 870 c-4 -6 5 -10 20 -10 15 0 24 4 20 10 -3 6 -12 10 -20 10
-8 0 -17 -4 -20 -10z"/>
<path d="M4215 859 c-10 -15 3 -25 16 -12 7 7 7 13 1 17 -6 3 -14 1 -17 -5z"/>
<path d="M4823 7969 c3 -9 0 -23 -6 -30 -7 -8 -3 -6 8 3 16 15 17 20 6 30 -11
11 -13 10 -8 -3z"/>
<path d="M4734 7859 c-9 -10 -15 -19 -13 -20 2 0 12 -2 21 -4 10 -2 20 1 24 6
3 5 9 7 14 4 4 -3 7 2 6 12 -4 23 -32 25 -52 2z m36 -3 c-15 -15 -44 -17 -31
-2 6 7 18 13 26 13 11 0 12 -4 5 -11z"/>
<path d="M4753 7803 c0 -9 4 -10 14 -2 7 6 13 12 13 14 0 1 -6 2 -13 2 -8 0
-14 -6 -14 -14z"/>
<path d="M4805 7811 c-3 -5 -1 -12 4 -16 5 -3 8 -14 6 -25 -2 -10 4 -25 13
-32 15 -11 15 -11 6 2 -6 8 -10 23 -9 32 2 10 -1 20 -6 24 -5 3 -7 10 -4 15 4
5 4 9 1 9 -3 0 -7 -4 -11 -9z"/>
<path d="M4786 7678 c3 -5 10 -6 15 -3 13 9 11 12 -6 12 -8 0 -12 -4 -9 -9z"/>
<path d="M4789 7325 c-1 -3 -2 -8 -3 -12 -3 -17 -18 -33 -26 -28 -5 3 -11 1
-14 -4 -4 -5 -2 -12 3 -15 5 -4 12 -2 16 4 4 6 11 8 16 4 5 -3 9 -2 8 3 -1 4
0 10 1 13 5 13 8 40 4 40 -2 0 -5 -2 -5 -5z"/>
<path d="M4643 7272 c15 -19 24 -38 21 -44 -4 -6 -10 -5 -15 3 -6 10 -9 10 -9
2 0 -16 17 -26 25 -13 4 6 11 7 18 3 6 -3 1 7 -11 24 -12 17 -18 34 -14 39 4
5 3 6 -2 2 -5 -4 -16 -2 -25 5 -9 6 -3 -3 12 -21z"/>
<path d="M4589 7254 c0 -5 -2 -20 -5 -34 -3 -17 -1 -21 5 -11 6 9 11 10 15 2
4 -6 4 -11 0 -11 -3 0 -1 -7 6 -15 7 -8 16 -12 21 -9 5 3 9 0 9 -7 0 -7 3 -9
6 -6 4 4 2 13 -4 20 -7 8 -8 18 -4 22 4 5 2 5 -5 1 -12 -6 -26 9 -29 32 -3 17
-14 29 -15 16z"/>
<path d="M4742 7238 c-7 -7 -12 -20 -12 -29 0 -9 -7 -22 -15 -29 -13 -10 -15
-9 -16 11 -1 17 -3 19 -6 6 -2 -9 -8 -15 -13 -12 -5 3 -12 0 -16 -6 -4 -8 -3
-9 4 -5 17 11 15 -9 -3 -24 -11 -9 -12 -16 -5 -25 7 -9 6 -16 -5 -25 -11 -9
-12 -16 -5 -25 5 -6 6 -16 2 -21 -4 -5 2 -1 14 9 20 16 34 14 34 -5 0 -5 -4
-7 -9 -3 -5 3 -13 0 -18 -7 -10 -16 -14 -42 -5 -33 4 4 7 11 7 16 0 5 3 9 8 9
4 0 9 0 12 0 3 0 1 -9 -5 -19 -7 -14 -7 -22 0 -26 6 -4 10 -3 9 2 -3 20 2 34
11 28 5 -3 7 -12 4 -19 -10 -26 14 -26 30 -1 9 14 13 25 10 25 -4 0 1 9 10 19
11 12 14 21 7 26 -6 3 -11 -2 -12 -12 0 -14 -2 -13 -10 5 -5 13 -7 28 -4 32 3
5 1 11 -5 15 -6 3 -10 -4 -11 -17 -1 -17 -3 -14 -11 12 -5 19 -15 41 -20 48
-8 9 -7 11 5 7 19 -8 48 31 40 54 -4 13 -3 13 5 2 6 -8 7 -21 4 -30 -5 -14 -4
-14 11 -2 14 11 15 16 5 29 -7 8 -11 17 -10 19 9 11 -6 11 -16 1z m-31 -140
c10 -42 14 -49 20 -33 5 14 8 15 9 5 1 -8 3 -22 5 -31 1 -8 -4 -24 -13 -35
-11 -14 -13 -15 -9 -2 3 9 0 22 -8 28 -8 6 -12 17 -9 25 3 7 1 16 -4 19 -6 3
-8 16 -6 29 2 12 1 15 -2 7 -11 -26 -26 -40 -36 -34 -5 3 -2 14 7 24 11 12 13
20 5 25 -8 5 -8 11 1 21 17 20 26 10 40 -48z"/>
<path d="M4710 7045 c0 -2 6 -8 13 -14 10 -8 14 -7 14 2 0 8 -6 14 -14 14 -7
0 -13 -1 -13 -2z"/>
<path d="M4532 7235 c4 -4 3 -14 -2 -20 -7 -9 -5 -17 7 -26 16 -12 17 -12 6 2
-9 11 -9 19 -2 26 8 8 7 13 -3 18 -7 5 -10 5 -6 0z"/>
<path d="M4555 7211 c-3 -5 -2 -12 3 -15 5 -3 9 1 9 9 0 17 -3 19 -12 6z"/>
<path d="M4569 7167 c6 -8 7 -18 3 -22 -4 -5 -1 -5 6 -1 10 6 10 11 1 22 -6 8
-14 14 -16 14 -3 0 0 -6 6 -13z"/>
<path d="M4625 7143 c2 -10 4 -20 5 -23 1 -3 2 -9 1 -13 -1 -5 3 -6 9 -2 8 5
7 12 -2 22 -7 9 -11 18 -10 20 2 3 1 7 -1 10 -3 3 -4 -3 -2 -14z"/>
<path d="M4666 6968 c3 -5 10 -6 15 -3 13 9 11 12 -6 12 -8 0 -12 -4 -9 -9z"/>
<path d="M4856 6943 c-6 -14 -5 -15 5 -6 7 7 10 15 7 18 -3 3 -9 -2 -12 -12z"/>
<path d="M4823 6929 c-2 -23 3 -25 10 -4 4 8 3 16 -1 19 -4 3 -9 -4 -9 -15z"/>
<path d="M4774 6928 c-4 -6 -3 -8 4 -4 6 3 13 2 16 -3 7 -11 -13 -9 -33 3 -9
6 -12 5 -7 -2 3 -6 -3 -13 -14 -17 -11 -3 -20 -9 -21 -13 0 -4 -2 -15 -4 -24
-2 -10 2 -18 8 -19 7 0 3 -4 -8 -9 -16 -7 -17 -9 -3 -9 9 -1 20 4 23 9 4 6 11
7 17 4 7 -4 8 -2 4 4 -4 6 4 16 16 23 25 13 38 28 38 45 0 16 -28 25 -36 12z
m-32 -70 c-6 -6 -7 0 -4 19 5 21 7 23 10 9 2 -10 0 -22 -6 -28z"/>
<path d="M4876 6932 c-3 -5 1 -9 9 -9 8 0 12 4 9 9 -3 4 -7 8 -9 8 -2 0 -6 -4
-9 -8z"/>
<path d="M4910 6864 c0 -8 5 -12 10 -9 6 4 8 11 5 16 -9 14 -15 11 -15 -7z"/>
<path d="M4869 6759 c-12 -23 3 -51 15 -30 4 6 2 11 -4 11 -8 0 -8 6 0 20 6
11 8 20 6 20 -3 0 -10 -9 -17 -21z"/>
<path d="M4411 6582 c0 -13 -5 -21 -10 -17 -5 3 -12 1 -15 -4 -9 -13 7 -21 23
-12 7 5 11 19 8 32 l-4 24 -2 -23z"/>
<path d="M4516 6572 c-3 -5 1 -9 9 -9 8 0 12 4 9 9 -3 4 -7 8 -9 8 -2 0 -6 -4
-9 -8z"/>
<path d="M4393 6515 c0 -7 6 -11 14 -8 7 3 13 6 13 8 0 2 -6 5 -13 8 -8 3 -14
-1 -14 -8z"/>
<path d="M4624 6516 c1 -8 5 -18 8 -22 4 -3 5 1 4 10 -1 8 -5 18 -8 22 -4 3
-5 -1 -4 -10z"/>
<path d="M4484 6501 c0 -20 16 -23 28 -6 9 12 0 25 -15 25 -7 0 -13 -9 -13
-19z"/>
<path d="M4104 6448 l-19 -23 23 19 c21 18 27 26 19 26 -2 0 -12 -10 -23 -22z"/>
<path d="M3999 6343 l-34 -38 38 34 c20 19 37 36 37 38 0 8 -8 0 -41 -34z"/>
<path d="M4419 6368 c0 -2 -2 -11 -4 -21 -3 -15 -1 -16 11 -6 7 6 11 15 8 20
-5 9 -13 12 -15 7z"/>
<path d="M3886 6272 l-19 -27 24 22 c12 12 21 24 18 27 -2 2 -13 -8 -23 -22z"/>
<path d="M4313 6255 c0 -19 3 -32 7 -30 7 4 6 52 -2 60 -2 3 -5 -11 -5 -30z"/>
<path d="M4289 6268 c-1 -7 -1 -20 0 -28 1 -11 -3 -10 -14 4 -8 11 -15 15 -15
9 0 -6 7 -16 15 -23 8 -7 12 -17 8 -24 -3 -6 -2 -7 3 -3 8 8 16 77 8 77 -2 0
-5 -6 -5 -12z"/>
<path d="M3915 6260 c-3 -5 -1 -10 4 -10 6 0 11 5 11 10 0 6 -2 10 -4 10 -3 0
-8 -4 -11 -10z"/>
<path d="M3879 6213 c-13 -16 -12 -17 4 -4 16 13 21 21 13 21 -2 0 -10 -8 -17
-17z"/>
<path d="M4246 6221 c-4 -5 -2 -12 4 -16 6 -4 7 -11 4 -17 -4 -6 -2 -8 4 -5
10 7 11 32 0 42 -3 4 -9 2 -12 -4z"/>
<path d="M3730 6216 c0 -2 8 -10 18 -17 15 -13 16 -12 3 4 -13 16 -21 21 -21
13z"/>
<path d="M3819 6193 c-13 -16 -12 -17 4 -4 16 13 21 21 13 21 -2 0 -10 -8 -17
-17z"/>
<path d="M4202 6176 c7 -8 17 -12 22 -9 4 3 2 9 -5 14 -22 13 -31 11 -17 -5z"/>
<path d="M3835 6161 c-3 -5 -2 -12 3 -15 5 -3 9 1 9 9 0 17 -3 19 -12 6z"/>
<path d="M4095 6140 c-3 -5 -2 -10 4 -10 5 0 13 5 16 10 3 6 2 10 -4 10 -5 0
-13 -4 -16 -10z"/>
<path d="M4137 6116 c-21 -16 -23 -30 -2 -22 9 3 15 0 15 -8 0 -7 11 -22 23
-35 l24 -22 -3 28 c-1 15 -3 35 -3 43 -1 10 -7 6 -17 -10 -14 -22 -15 -23 -11
-4 7 32 -5 45 -26 30z m50 -51 c0 -8 -4 -12 -9 -9 -5 3 -6 10 -3 15 9 13 12
11 12 -6z"/>
<path d="M4050 6100 c-48 -39 -55 -45 -70 -65 -8 -11 11 2 43 29 50 42 64 57
55 56 -2 -1 -14 -10 -28 -20z"/>
<path d="M3900 6073 c0 -5 10 -18 23 -29 l22 -19 -20 25 c-11 14 -21 27 -22
29 -2 2 -3 0 -3 -6z"/>
<path d="M4160 5991 c0 -10 26 -9 36 2 4 4 -2 7 -14 7 -12 0 -22 -4 -22 -9z"/>
<path d="M3637 5869 c7 -7 15 -10 18 -7 3 3 -2 9 -12 12 -14 6 -15 5 -6 -5z"/>
<path d="M3470 5809 c0 -5 5 -7 10 -4 6 3 10 8 10 11 0 2 -4 4 -10 4 -5 0 -10
-5 -10 -11z"/>
<path d="M3768 5813 c7 -3 16 -2 19 1 4 3 -2 6 -13 5 -11 0 -14 -3 -6 -6z"/>
<path d="M3804 5760 c0 -11 -3 -19 -9 -19 -5 1 -9 5 -7 11 1 5 -2 7 -7 4 -5
-3 -8 -14 -6 -24 2 -9 4 -20 4 -24 1 -5 6 -8 13 -8 6 0 8 3 5 7 -4 3 -1 13 5
21 15 17 19 40 8 47 -4 2 -7 -4 -6 -15z"/>
<path d="M3701 5724 c0 -11 3 -14 6 -6 3 7 2 16 -1 19 -3 4 -6 -2 -5 -13z"/>
<path d="M3730 5730 c0 -6 7 -10 15 -10 8 0 15 2 15 4 0 2 -7 6 -15 10 -8 3
-15 1 -15 -4z"/>
<path d="M3727 5684 c7 -3 11 -11 9 -17 -1 -7 -1 -9 1 -4 3 4 11 7 19 7 9 0
12 5 9 10 -3 6 -16 10 -28 9 -12 0 -17 -3 -10 -5z"/>
<path d="M3625 5580 c25 -28 17 -35 -12 -9 -18 15 -22 17 -11 4 14 -17 14 -24
4 -43 -7 -12 -15 -20 -19 -16 -4 4 -2 13 5 21 8 10 8 17 -1 26 -10 9 -11 8 -6
-5 7 -18 -8 -19 -35 -3 -10 6 -9 2 3 -12 16 -19 17 -21 0 -34 -15 -12 -16 -12
-10 3 3 10 -1 22 -11 30 -13 11 -14 11 -7 -2 5 -8 10 -25 11 -38 3 -28 14 -43
14 -19 0 9 5 19 11 23 8 4 9 -1 5 -17 -7 -24 -7 -24 8 1 10 16 16 20 16 10 1
-10 5 -7 12 7 10 21 12 22 25 5 8 -9 12 -11 8 -5 -3 7 -1 21 4 30 8 14 11 15
11 3 0 -12 3 -11 11 3 7 11 7 23 0 35 -6 10 -11 12 -11 4 0 -7 -5 -10 -10 -7
-6 4 -8 10 -6 14 3 4 -1 8 -9 8 -13 0 -13 -3 0 -17z"/>
<path d="M2292 5130 c0 -14 2 -19 5 -12 2 6 2 18 0 25 -3 6 -5 1 -5 -13z"/>
<path d="M2382 5105 c0 -16 2 -22 5 -12 2 9 2 23 0 30 -3 6 -5 -1 -5 -18z"/>
<path d="M3110 5118 c6 -8 5 -17 -3 -27 -10 -12 -9 -13 2 -7 9 6 12 5 9 -5 -3
-8 -15 -13 -27 -13 -21 1 -21 0 -5 -17 10 -11 14 -25 10 -36 -8 -20 -8 -23 -1
-23 3 0 4 2 3 4 -2 3 7 15 18 28 12 13 20 30 18 38 -2 8 -5 23 -7 33 -2 9 -9
22 -15 27 -9 7 -9 7 -2 -2z m16 -63 c-3 -24 -12 -27 -27 -8 -8 9 -9 14 -2 10
6 -4 14 -3 18 3 9 14 14 12 11 -5z"/>
<path d="M3136 5118 c3 -5 10 -6 15 -3 13 9 11 12 -6 12 -8 0 -12 -4 -9 -9z"/>
<path d="M2221 5014 c0 -11 3 -14 6 -6 3 7 2 16 -1 19 -3 4 -6 -2 -5 -13z"/>
<path d="M2292 5010 c0 -14 2 -19 5 -12 2 6 2 18 0 25 -3 6 -5 1 -5 -13z"/>
<path d="M2390 4982 c6 -13 14 -21 18 -18 3 4 -2 14 -12 24 -18 16 -18 16 -6
-6z"/>
<path d="M3170 4992 c0 -7 -5 -10 -12 -6 -6 4 -8 3 -5 -3 4 -6 -2 -21 -12 -34
-10 -13 -18 -39 -19 -57 -1 -28 2 -31 14 -21 8 6 12 14 9 17 -3 3 2 14 12 24
9 10 13 18 9 18 -3 0 0 10 8 23 10 15 12 27 6 37 -7 11 -10 11 -10 2z m-2 -34
c-7 -13 -11 -27 -10 -31 1 -5 -2 -6 -8 -2 -5 3 -10 -2 -11 -12 0 -10 -3 -13
-5 -6 -3 7 5 26 17 43 27 35 35 39 17 8z"/>
<path d="M2880 4916 c0 -2 8 -10 18 -17 15 -13 16 -12 3 4 -13 16 -21 21 -21
13z"/>
<path d="M3036 4876 c6 -15 4 -17 -7 -11 -8 4 -11 5 -7 0 4 -4 4 -13 -2 -19
-5 -7 -5 -17 0 -26 8 -12 10 -12 10 -1 0 10 3 11 14 2 10 -8 16 -9 21 -1 3 6
11 8 16 5 12 -8 11 -2 -5 29 l-14 27 -6 -26 c-4 -14 -11 -23 -17 -20 -6 5 -6
12 2 21 10 12 9 17 0 27 -10 9 -11 8 -5 -7z m25 -49 c-10 -9 -11 -8 -5 6 3 10
9 15 12 12 3 -3 0 -11 -7 -18z"/>
<path d="M2931 4803 c4 -20 -2 -27 -12 -13 -9 13 -10 12 -5 -2 3 -10 1 -20 -4
-23 -6 -4 -10 -1 -10 6 0 17 -11 5 -14 -15 -1 -9 -5 -16 -9 -16 -4 0 -9 0 -12
0 -3 0 -1 8 4 18 14 27 -14 25 -36 -2 -18 -21 -18 -21 5 -2 12 11 22 14 22 9
0 -6 -6 -16 -14 -22 -18 -15 -17 -48 2 -48 7 0 22 13 33 29 11 15 24 26 29 23
9 -6 33 21 36 41 1 8 -2 17 -7 20 -5 3 -9 2 -8 -3z m9 -27 c0 -2 -8 -10 -17
-17 -16 -13 -17 -12 -4 4 13 16 21 21 21 13z m-79 -59 c-13 -13 -26 -3 -16 12
3 6 11 8 17 5 6 -4 6 -10 -1 -17z"/>
<path d="M2696 4773 c2 -7 -1 -15 -6 -18 -5 -3 -6 -13 -3 -23 6 -15 4 -15 -10
-4 -14 12 -15 11 -4 -12 11 -23 12 -24 19 -5 4 10 10 19 13 19 4 0 4 -4 1 -9
-3 -4 5 -13 18 -19 20 -9 23 -8 22 14 -2 25 -26 59 -26 36 0 -7 -7 -12 -17
-12 -14 0 -14 3 3 22 10 12 14 18 7 15 -6 -4 -13 -4 -16 0 -2 5 -2 3 -1 -4z
m31 -55 c-3 -8 -6 -5 -6 6 -1 11 2 17 5 13 3 -3 4 -12 1 -19z"/>
<path d="M1590 4771 c0 -6 -12 -23 -26 -37 -14 -15 -20 -24 -13 -22 18 6 54
56 46 65 -4 3 -7 1 -7 -6z"/>
<path d="M2632 4751 c7 -9 13 -18 15 -20 1 -2 1 5 0 16 0 11 -7 20 -14 20 -10
0 -10 -4 -1 -16z"/>
<path d="M1471 4742 c12 -19 38 -37 44 -30 1 2 -11 14 -27 27 -28 23 -29 23
-17 3z"/>
<path d="M2604 4728 c-4 -7 -4 -10 1 -6 4 4 15 2 24 -5 14 -11 14 -10 2 6 -16
20 -18 21 -27 5z"/>
<path d="M1506 4561 l7 -133 -37 16 c-20 8 -50 25 -67 36 -27 20 -32 29 -43
90 -3 14 -3 3 -1 -24 3 -50 18 -70 70 -94 95 -45 141 -68 145 -72 3 -3 12 -6
20 -8 8 -2 18 -10 23 -17 5 -10 15 -11 36 -5 16 4 31 6 33 4 7 -6 -11 123 -22
168 -15 57 -56 125 -83 139 -18 10 -16 6 7 -17 16 -16 37 -48 48 -71 19 -44
45 -199 35 -210 -4 -3 -37 8 -74 24 l-68 31 -11 131 c-6 72 -13 134 -17 138
-4 3 -4 -53 -1 -126z"/>
<path d="M1371 4644 c0 -11 3 -14 6 -6 3 7 2 16 -1 19 -3 4 -6 -2 -5 -13z"/>
<path d="M2717 4647 c-3 -8 1 -14 8 -14 7 0 11 6 8 14 -3 7 -6 13 -8 13 -2 0
-5 -6 -8 -13z"/>
<path d="M2225 4469 c-4 -6 -5 -12 -2 -15 2 -3 7 2 10 11 7 17 1 20 -8 4z"/>
<path d="M2196 4455 c-9 -26 -7 -32 5 -12 6 10 9 21 6 23 -2 3 -7 -2 -11 -11z"/>
<path d="M2149 4458 c-5 -18 -6 -38 -1 -34 7 8 12 36 6 36 -2 0 -4 -1 -5 -2z"/>
<path d="M2016 4413 c-4 -5 -13 -8 -19 -8 -7 0 -12 -8 -13 -18 -1 -12 -1 -13
3 -2 2 8 9 13 14 9 5 -3 6 -11 3 -17 -4 -7 -3 -8 2 -4 5 5 9 12 9 15 0 4 4 13
8 20 9 13 5 16 -7 5z"/>
<path d="M1925 4381 c0 -16 3 -27 7 -25 4 3 6 14 5 24 -5 31 -13 32 -12 1z"/>
<path d="M1826 4382 c-2 -4 -1 -14 4 -22 7 -11 9 -9 7 8 -1 24 -3 26 -11 14z"/>
<path d="M160 4377 c0 -2 6 -10 14 -16 11 -9 16 -9 22 1 4 7 4 10 -1 6 -4 -4
-14 -3 -22 3 -7 6 -13 9 -13 6z"/>
<path d="M1950 4369 c0 -5 5 -7 10 -4 6 3 10 8 10 11 0 2 -4 4 -10 4 -5 0 -10
-5 -10 -11z"/>
<path d="M216 4358 c3 -5 10 -6 15 -3 13 9 11 12 -6 12 -8 0 -12 -4 -9 -9z"/>
<path d="M524 4352 c11 -12 17 -22 13 -22 -3 0 -13 -3 -21 -6 -12 -5 -15 -2
-10 12 5 16 4 16 -5 4 -9 -13 -11 -12 -11 4 0 11 -3 16 -7 13 -3 -4 0 -18 7
-32 10 -19 16 -22 26 -14 7 6 18 8 23 5 5 -4 13 -1 17 5 4 8 9 7 15 -2 5 -8 9
-9 9 -4 0 6 -5 17 -10 25 -7 11 -10 11 -10 2 0 -7 -5 -10 -10 -7 -6 4 -7 12
-4 18 4 7 4 9 -1 5 -4 -4 -15 -2 -24 4 -10 8 -9 4 3 -10z"/>
<path d="M456 4352 c-2 -4 -1 -14 4 -22 7 -11 9 -9 7 8 -1 24 -3 26 -11 14z"/>
<path d="M613 4339 c-2 -23 3 -25 10 -4 4 8 3 16 -1 19 -4 3 -9 -4 -9 -15z"/>
<path d="M201 4334 c0 -11 3 -14 6 -6 3 7 2 16 -1 19 -3 4 -6 -2 -5 -13z"/>
<path d="M1747 4344 c-3 -3 -3 -12 0 -20 3 -9 0 -14 -8 -12 -7 2 -14 -3 -15
-9 -3 -27 -5 -28 -15 -13 -9 13 -10 12 -5 -2 3 -10 1 -18 -4 -18 -9 0 -14 15
-11 33 1 5 -3 6 -9 2 -11 -7 4 -45 18 -45 15 0 59 55 59 73 0 19 -1 20 -10 11z"/>
<path d="M175 4330 c3 -5 8 -10 11 -10 2 0 4 5 4 10 0 6 -5 10 -11 10 -5 0 -7
-4 -4 -10z"/>
<path d="M825 4330 c-4 -6 -11 -8 -16 -5 -5 3 -6 -2 -3 -12 5 -17 5 -17 -8 -1
-13 15 -15 15 -27 0 -10 -14 -11 -15 -7 -1 2 9 -2 16 -9 16 -16 0 -7 -34 11
-41 7 -3 16 -1 19 5 4 5 10 7 15 4 4 -3 15 6 24 20 9 14 14 25 12 25 -3 0 -8
-5 -11 -10z"/>
<path d="M891 4308 c11 -15 24 -26 28 -24 10 6 7 43 -3 53 -4 5 -7 4 -6 -2 1
-5 2 -17 1 -25 -1 -13 -3 -13 -10 0 -6 8 -8 17 -6 20 2 4 -2 7 -10 7 -11 0 -9
-7 6 -29z"/>
<path d="M1122 4311 c0 -17 1 -31 3 -31 7 0 12 39 5 49 -4 7 -7 -1 -8 -18z"/>
<path d="M995 4320 c-4 -6 -2 -17 4 -23 9 -9 11 -7 6 8 -6 18 -5 19 7 3 13
-15 15 -15 28 5 12 19 11 20 -2 10 -10 -9 -18 -9 -25 -2 -8 8 -13 7 -18 -1z"/>
<path d="M971 4304 c0 -11 3 -14 6 -6 3 7 2 16 -1 19 -3 4 -6 -2 -5 -13z"/>
<path d="M1413 4305 c-3 -9 -3 -18 -1 -21 3 -3 8 4 11 16 6 23 -1 27 -10 5z"/>
<path d="M1101 4294 c0 -11 3 -14 6 -6 3 7 2 16 -1 19 -3 4 -6 -2 -5 -13z"/>
<path d="M1504 4290 c0 -13 4 -16 10 -10 7 7 7 13 0 20 -6 6 -10 3 -10 -10z"/>
</g>
</svg>
